%TF.GenerationSoftware,KiCad,Pcbnew,10.0.4*%
%TF.CreationDate,2026-07-06T14:09:57-04:00*%
%TF.ProjectId,gate-rail,67617465-2d72-4616-996c-2e6b69636164,rev?*%
%TF.SameCoordinates,Original*%
%TF.FileFunction,Drillmap*%
%TF.FilePolarity,Positive*%
%FSLAX45Y45*%
G04 Gerber Fmt 4.5, Leading zero omitted, Abs format (unit mm)*
G04 Created by KiCad (PCBNEW 10.0.4) date 2026-07-06 14:09:57*
%MOMM*%
%LPD*%
G01*
G04 APERTURE LIST*
%ADD10C,0.100000*%
%ADD11C,0.200000*%
%ADD12C,0.320000*%
G04 APERTURE END LIST*
D10*
X0Y0D02*
X22400000Y0D01*
X0Y-1500000D02*
X0Y0D01*
X22400000Y0D02*
X22400000Y-1500000D01*
X22400000Y-1500000D02*
X0Y-1500000D01*
D11*
D10*
X21195000Y-985000D02*
X21225000Y-1015000D01*
X21225000Y-985000D02*
X21195000Y-1015000D01*
X21525000Y-235000D02*
X21555000Y-265000D01*
X21555000Y-235000D02*
X21525000Y-265000D01*
X1045000Y-480000D02*
G75*
G02*
X955000Y-480000I-45000J0D01*
G01*
X955000Y-480000D02*
G75*
G02*
X1045000Y-480000I45000J0D01*
G01*
X1045000Y-1090000D02*
G75*
G02*
X955000Y-1090000I-45000J0D01*
G01*
X955000Y-1090000D02*
G75*
G02*
X1045000Y-1090000I45000J0D01*
G01*
X1299000Y-480000D02*
G75*
G02*
X1209000Y-480000I-45000J0D01*
G01*
X1209000Y-480000D02*
G75*
G02*
X1299000Y-480000I45000J0D01*
G01*
X1299000Y-1090000D02*
G75*
G02*
X1209000Y-1090000I-45000J0D01*
G01*
X1209000Y-1090000D02*
G75*
G02*
X1299000Y-1090000I45000J0D01*
G01*
X3045000Y-480000D02*
G75*
G02*
X2955000Y-480000I-45000J0D01*
G01*
X2955000Y-480000D02*
G75*
G02*
X3045000Y-480000I45000J0D01*
G01*
X3045000Y-1090000D02*
G75*
G02*
X2955000Y-1090000I-45000J0D01*
G01*
X2955000Y-1090000D02*
G75*
G02*
X3045000Y-1090000I45000J0D01*
G01*
X3299000Y-480000D02*
G75*
G02*
X3209000Y-480000I-45000J0D01*
G01*
X3209000Y-480000D02*
G75*
G02*
X3299000Y-480000I45000J0D01*
G01*
X3299000Y-1090000D02*
G75*
G02*
X3209000Y-1090000I-45000J0D01*
G01*
X3209000Y-1090000D02*
G75*
G02*
X3299000Y-1090000I45000J0D01*
G01*
X5045000Y-480000D02*
G75*
G02*
X4955000Y-480000I-45000J0D01*
G01*
X4955000Y-480000D02*
G75*
G02*
X5045000Y-480000I45000J0D01*
G01*
X5045000Y-1090000D02*
G75*
G02*
X4955000Y-1090000I-45000J0D01*
G01*
X4955000Y-1090000D02*
G75*
G02*
X5045000Y-1090000I45000J0D01*
G01*
X5299000Y-480000D02*
G75*
G02*
X5209000Y-480000I-45000J0D01*
G01*
X5209000Y-480000D02*
G75*
G02*
X5299000Y-480000I45000J0D01*
G01*
X5299000Y-1090000D02*
G75*
G02*
X5209000Y-1090000I-45000J0D01*
G01*
X5209000Y-1090000D02*
G75*
G02*
X5299000Y-1090000I45000J0D01*
G01*
X7545000Y-480000D02*
G75*
G02*
X7455000Y-480000I-45000J0D01*
G01*
X7455000Y-480000D02*
G75*
G02*
X7545000Y-480000I45000J0D01*
G01*
X7545000Y-1090000D02*
G75*
G02*
X7455000Y-1090000I-45000J0D01*
G01*
X7455000Y-1090000D02*
G75*
G02*
X7545000Y-1090000I45000J0D01*
G01*
X7799000Y-480000D02*
G75*
G02*
X7709000Y-480000I-45000J0D01*
G01*
X7709000Y-480000D02*
G75*
G02*
X7799000Y-480000I45000J0D01*
G01*
X7799000Y-1090000D02*
G75*
G02*
X7709000Y-1090000I-45000J0D01*
G01*
X7709000Y-1090000D02*
G75*
G02*
X7799000Y-1090000I45000J0D01*
G01*
X13045000Y-480000D02*
G75*
G02*
X12955000Y-480000I-45000J0D01*
G01*
X12955000Y-480000D02*
G75*
G02*
X13045000Y-480000I45000J0D01*
G01*
X13045000Y-1090000D02*
G75*
G02*
X12955000Y-1090000I-45000J0D01*
G01*
X12955000Y-1090000D02*
G75*
G02*
X13045000Y-1090000I45000J0D01*
G01*
X13299000Y-480000D02*
G75*
G02*
X13209000Y-480000I-45000J0D01*
G01*
X13209000Y-480000D02*
G75*
G02*
X13299000Y-480000I45000J0D01*
G01*
X13299000Y-1090000D02*
G75*
G02*
X13209000Y-1090000I-45000J0D01*
G01*
X13209000Y-1090000D02*
G75*
G02*
X13299000Y-1090000I45000J0D01*
G01*
X19045000Y-480000D02*
G75*
G02*
X18955000Y-480000I-45000J0D01*
G01*
X18955000Y-480000D02*
G75*
G02*
X19045000Y-480000I45000J0D01*
G01*
X19045000Y-1090000D02*
G75*
G02*
X18955000Y-1090000I-45000J0D01*
G01*
X18955000Y-1090000D02*
G75*
G02*
X19045000Y-1090000I45000J0D01*
G01*
X19299000Y-480000D02*
G75*
G02*
X19209000Y-480000I-45000J0D01*
G01*
X19209000Y-480000D02*
G75*
G02*
X19299000Y-480000I45000J0D01*
G01*
X19299000Y-1090000D02*
G75*
G02*
X19209000Y-1090000I-45000J0D01*
G01*
X19209000Y-1090000D02*
G75*
G02*
X19299000Y-1090000I45000J0D01*
G01*
X20034000Y-550000D02*
X20034000Y-650000D01*
X19984000Y-600000D02*
X20084000Y-600000D01*
X20034000Y-804000D02*
X20034000Y-904000D01*
X19984000Y-854000D02*
X20084000Y-854000D01*
X20288000Y-550000D02*
X20288000Y-650000D01*
X20238000Y-600000D02*
X20338000Y-600000D01*
X20288000Y-804000D02*
X20288000Y-904000D01*
X20238000Y-854000D02*
X20338000Y-854000D01*
X20542000Y-550000D02*
X20542000Y-650000D01*
X20492000Y-600000D02*
X20592000Y-600000D01*
X20542000Y-804000D02*
X20542000Y-904000D01*
X20492000Y-854000D02*
X20592000Y-854000D01*
X20796000Y-550000D02*
X20796000Y-650000D01*
X20746000Y-600000D02*
X20846000Y-600000D01*
X20796000Y-804000D02*
X20796000Y-904000D01*
X20746000Y-854000D02*
X20846000Y-854000D01*
X21050000Y-550000D02*
X21050000Y-650000D01*
X21000000Y-600000D02*
X21100000Y-600000D01*
X21050000Y-804000D02*
X21050000Y-904000D01*
X21000000Y-854000D02*
X21100000Y-854000D01*
D12*
X563138Y-513138D02*
X563138Y-286862D01*
X336862Y-286862D01*
X336862Y-513138D01*
X563138Y-513138D01*
X22113138Y-1213138D02*
X22113138Y-986862D01*
X21886862Y-986862D01*
X21886862Y-1213138D01*
X22113138Y-1213138D01*
D11*
X255777Y-1816484D02*
X255777Y-1616484D01*
X255777Y-1616484D02*
X303396Y-1616484D01*
X303396Y-1616484D02*
X331967Y-1626008D01*
X331967Y-1626008D02*
X351015Y-1645055D01*
X351015Y-1645055D02*
X360539Y-1664103D01*
X360539Y-1664103D02*
X370062Y-1702198D01*
X370062Y-1702198D02*
X370062Y-1730769D01*
X370062Y-1730769D02*
X360539Y-1768865D01*
X360539Y-1768865D02*
X351015Y-1787912D01*
X351015Y-1787912D02*
X331967Y-1806960D01*
X331967Y-1806960D02*
X303396Y-1816484D01*
X303396Y-1816484D02*
X255777Y-1816484D01*
X455777Y-1816484D02*
X455777Y-1683150D01*
X455777Y-1721246D02*
X465301Y-1702198D01*
X465301Y-1702198D02*
X474824Y-1692674D01*
X474824Y-1692674D02*
X493872Y-1683150D01*
X493872Y-1683150D02*
X512920Y-1683150D01*
X579586Y-1816484D02*
X579586Y-1683150D01*
X579586Y-1616484D02*
X570063Y-1626008D01*
X570063Y-1626008D02*
X579586Y-1635531D01*
X579586Y-1635531D02*
X589110Y-1626008D01*
X589110Y-1626008D02*
X579586Y-1616484D01*
X579586Y-1616484D02*
X579586Y-1635531D01*
X703396Y-1816484D02*
X684348Y-1806960D01*
X684348Y-1806960D02*
X674824Y-1787912D01*
X674824Y-1787912D02*
X674824Y-1616484D01*
X808158Y-1816484D02*
X789110Y-1806960D01*
X789110Y-1806960D02*
X779586Y-1787912D01*
X779586Y-1787912D02*
X779586Y-1616484D01*
X1036729Y-1816484D02*
X1036729Y-1616484D01*
X1036729Y-1616484D02*
X1103396Y-1759341D01*
X1103396Y-1759341D02*
X1170063Y-1616484D01*
X1170063Y-1616484D02*
X1170063Y-1816484D01*
X1351015Y-1816484D02*
X1351015Y-1711722D01*
X1351015Y-1711722D02*
X1341491Y-1692674D01*
X1341491Y-1692674D02*
X1322444Y-1683150D01*
X1322444Y-1683150D02*
X1284348Y-1683150D01*
X1284348Y-1683150D02*
X1265301Y-1692674D01*
X1351015Y-1806960D02*
X1331967Y-1816484D01*
X1331967Y-1816484D02*
X1284348Y-1816484D01*
X1284348Y-1816484D02*
X1265301Y-1806960D01*
X1265301Y-1806960D02*
X1255777Y-1787912D01*
X1255777Y-1787912D02*
X1255777Y-1768865D01*
X1255777Y-1768865D02*
X1265301Y-1749817D01*
X1265301Y-1749817D02*
X1284348Y-1740293D01*
X1284348Y-1740293D02*
X1331967Y-1740293D01*
X1331967Y-1740293D02*
X1351015Y-1730769D01*
X1446253Y-1683150D02*
X1446253Y-1883150D01*
X1446253Y-1692674D02*
X1465301Y-1683150D01*
X1465301Y-1683150D02*
X1503396Y-1683150D01*
X1503396Y-1683150D02*
X1522443Y-1692674D01*
X1522443Y-1692674D02*
X1531967Y-1702198D01*
X1531967Y-1702198D02*
X1541491Y-1721246D01*
X1541491Y-1721246D02*
X1541491Y-1778388D01*
X1541491Y-1778388D02*
X1531967Y-1797436D01*
X1531967Y-1797436D02*
X1522443Y-1806960D01*
X1522443Y-1806960D02*
X1503396Y-1816484D01*
X1503396Y-1816484D02*
X1465301Y-1816484D01*
X1465301Y-1816484D02*
X1446253Y-1806960D01*
X1627205Y-1797436D02*
X1636729Y-1806960D01*
X1636729Y-1806960D02*
X1627205Y-1816484D01*
X1627205Y-1816484D02*
X1617682Y-1806960D01*
X1617682Y-1806960D02*
X1627205Y-1797436D01*
X1627205Y-1797436D02*
X1627205Y-1816484D01*
X1627205Y-1692674D02*
X1636729Y-1702198D01*
X1636729Y-1702198D02*
X1627205Y-1711722D01*
X1627205Y-1711722D02*
X1617682Y-1702198D01*
X1617682Y-1702198D02*
X1627205Y-1692674D01*
X1627205Y-1692674D02*
X1627205Y-1711722D01*
D10*
X-35000Y-2130000D02*
X-5000Y-2160000D01*
X-5000Y-2130000D02*
X-35000Y-2160000D01*
D11*
X293872Y-2036484D02*
X312920Y-2036484D01*
X312920Y-2036484D02*
X331967Y-2046008D01*
X331967Y-2046008D02*
X341491Y-2055531D01*
X341491Y-2055531D02*
X351015Y-2074579D01*
X351015Y-2074579D02*
X360539Y-2112674D01*
X360539Y-2112674D02*
X360539Y-2160293D01*
X360539Y-2160293D02*
X351015Y-2198389D01*
X351015Y-2198389D02*
X341491Y-2217436D01*
X341491Y-2217436D02*
X331967Y-2226960D01*
X331967Y-2226960D02*
X312920Y-2236484D01*
X312920Y-2236484D02*
X293872Y-2236484D01*
X293872Y-2236484D02*
X274824Y-2226960D01*
X274824Y-2226960D02*
X265301Y-2217436D01*
X265301Y-2217436D02*
X255777Y-2198389D01*
X255777Y-2198389D02*
X246253Y-2160293D01*
X246253Y-2160293D02*
X246253Y-2112674D01*
X246253Y-2112674D02*
X255777Y-2074579D01*
X255777Y-2074579D02*
X265301Y-2055531D01*
X265301Y-2055531D02*
X274824Y-2046008D01*
X274824Y-2046008D02*
X293872Y-2036484D01*
X446253Y-2217436D02*
X455777Y-2226960D01*
X455777Y-2226960D02*
X446253Y-2236484D01*
X446253Y-2236484D02*
X436729Y-2226960D01*
X436729Y-2226960D02*
X446253Y-2217436D01*
X446253Y-2217436D02*
X446253Y-2236484D01*
X522443Y-2036484D02*
X646253Y-2036484D01*
X646253Y-2036484D02*
X579586Y-2112674D01*
X579586Y-2112674D02*
X608158Y-2112674D01*
X608158Y-2112674D02*
X627205Y-2122198D01*
X627205Y-2122198D02*
X636729Y-2131722D01*
X636729Y-2131722D02*
X646253Y-2150770D01*
X646253Y-2150770D02*
X646253Y-2198389D01*
X646253Y-2198389D02*
X636729Y-2217436D01*
X636729Y-2217436D02*
X627205Y-2226960D01*
X627205Y-2226960D02*
X608158Y-2236484D01*
X608158Y-2236484D02*
X551015Y-2236484D01*
X551015Y-2236484D02*
X531967Y-2226960D01*
X531967Y-2226960D02*
X522443Y-2217436D01*
X770062Y-2036484D02*
X789110Y-2036484D01*
X789110Y-2036484D02*
X808158Y-2046008D01*
X808158Y-2046008D02*
X817682Y-2055531D01*
X817682Y-2055531D02*
X827205Y-2074579D01*
X827205Y-2074579D02*
X836729Y-2112674D01*
X836729Y-2112674D02*
X836729Y-2160293D01*
X836729Y-2160293D02*
X827205Y-2198389D01*
X827205Y-2198389D02*
X817682Y-2217436D01*
X817682Y-2217436D02*
X808158Y-2226960D01*
X808158Y-2226960D02*
X789110Y-2236484D01*
X789110Y-2236484D02*
X770062Y-2236484D01*
X770062Y-2236484D02*
X751015Y-2226960D01*
X751015Y-2226960D02*
X741491Y-2217436D01*
X741491Y-2217436D02*
X731967Y-2198389D01*
X731967Y-2198389D02*
X722443Y-2160293D01*
X722443Y-2160293D02*
X722443Y-2112674D01*
X722443Y-2112674D02*
X731967Y-2074579D01*
X731967Y-2074579D02*
X741491Y-2055531D01*
X741491Y-2055531D02*
X751015Y-2046008D01*
X751015Y-2046008D02*
X770062Y-2036484D01*
X960539Y-2036484D02*
X979586Y-2036484D01*
X979586Y-2036484D02*
X998634Y-2046008D01*
X998634Y-2046008D02*
X1008158Y-2055531D01*
X1008158Y-2055531D02*
X1017682Y-2074579D01*
X1017682Y-2074579D02*
X1027205Y-2112674D01*
X1027205Y-2112674D02*
X1027205Y-2160293D01*
X1027205Y-2160293D02*
X1017682Y-2198389D01*
X1017682Y-2198389D02*
X1008158Y-2217436D01*
X1008158Y-2217436D02*
X998634Y-2226960D01*
X998634Y-2226960D02*
X979586Y-2236484D01*
X979586Y-2236484D02*
X960539Y-2236484D01*
X960539Y-2236484D02*
X941491Y-2226960D01*
X941491Y-2226960D02*
X931967Y-2217436D01*
X931967Y-2217436D02*
X922443Y-2198389D01*
X922443Y-2198389D02*
X912920Y-2160293D01*
X912920Y-2160293D02*
X912920Y-2112674D01*
X912920Y-2112674D02*
X922443Y-2074579D01*
X922443Y-2074579D02*
X931967Y-2055531D01*
X931967Y-2055531D02*
X941491Y-2046008D01*
X941491Y-2046008D02*
X960539Y-2036484D01*
X1112920Y-2236484D02*
X1112920Y-2103150D01*
X1112920Y-2122198D02*
X1122444Y-2112674D01*
X1122444Y-2112674D02*
X1141491Y-2103150D01*
X1141491Y-2103150D02*
X1170063Y-2103150D01*
X1170063Y-2103150D02*
X1189110Y-2112674D01*
X1189110Y-2112674D02*
X1198634Y-2131722D01*
X1198634Y-2131722D02*
X1198634Y-2236484D01*
X1198634Y-2131722D02*
X1208158Y-2112674D01*
X1208158Y-2112674D02*
X1227205Y-2103150D01*
X1227205Y-2103150D02*
X1255777Y-2103150D01*
X1255777Y-2103150D02*
X1274825Y-2112674D01*
X1274825Y-2112674D02*
X1284348Y-2131722D01*
X1284348Y-2131722D02*
X1284348Y-2236484D01*
X1379586Y-2236484D02*
X1379586Y-2103150D01*
X1379586Y-2122198D02*
X1389110Y-2112674D01*
X1389110Y-2112674D02*
X1408158Y-2103150D01*
X1408158Y-2103150D02*
X1436729Y-2103150D01*
X1436729Y-2103150D02*
X1455777Y-2112674D01*
X1455777Y-2112674D02*
X1465301Y-2131722D01*
X1465301Y-2131722D02*
X1465301Y-2236484D01*
X1465301Y-2131722D02*
X1474824Y-2112674D01*
X1474824Y-2112674D02*
X1493872Y-2103150D01*
X1493872Y-2103150D02*
X1522443Y-2103150D01*
X1522443Y-2103150D02*
X1541491Y-2112674D01*
X1541491Y-2112674D02*
X1551015Y-2131722D01*
X1551015Y-2131722D02*
X1551015Y-2236484D01*
X1941491Y-2026960D02*
X1770063Y-2284103D01*
X2198634Y-2036484D02*
X2217682Y-2036484D01*
X2217682Y-2036484D02*
X2236729Y-2046008D01*
X2236729Y-2046008D02*
X2246253Y-2055531D01*
X2246253Y-2055531D02*
X2255777Y-2074579D01*
X2255777Y-2074579D02*
X2265301Y-2112674D01*
X2265301Y-2112674D02*
X2265301Y-2160293D01*
X2265301Y-2160293D02*
X2255777Y-2198389D01*
X2255777Y-2198389D02*
X2246253Y-2217436D01*
X2246253Y-2217436D02*
X2236729Y-2226960D01*
X2236729Y-2226960D02*
X2217682Y-2236484D01*
X2217682Y-2236484D02*
X2198634Y-2236484D01*
X2198634Y-2236484D02*
X2179587Y-2226960D01*
X2179587Y-2226960D02*
X2170063Y-2217436D01*
X2170063Y-2217436D02*
X2160539Y-2198389D01*
X2160539Y-2198389D02*
X2151015Y-2160293D01*
X2151015Y-2160293D02*
X2151015Y-2112674D01*
X2151015Y-2112674D02*
X2160539Y-2074579D01*
X2160539Y-2074579D02*
X2170063Y-2055531D01*
X2170063Y-2055531D02*
X2179587Y-2046008D01*
X2179587Y-2046008D02*
X2198634Y-2036484D01*
X2351015Y-2217436D02*
X2360539Y-2226960D01*
X2360539Y-2226960D02*
X2351015Y-2236484D01*
X2351015Y-2236484D02*
X2341491Y-2226960D01*
X2341491Y-2226960D02*
X2351015Y-2217436D01*
X2351015Y-2217436D02*
X2351015Y-2236484D01*
X2484348Y-2036484D02*
X2503396Y-2036484D01*
X2503396Y-2036484D02*
X2522444Y-2046008D01*
X2522444Y-2046008D02*
X2531968Y-2055531D01*
X2531968Y-2055531D02*
X2541491Y-2074579D01*
X2541491Y-2074579D02*
X2551015Y-2112674D01*
X2551015Y-2112674D02*
X2551015Y-2160293D01*
X2551015Y-2160293D02*
X2541491Y-2198389D01*
X2541491Y-2198389D02*
X2531968Y-2217436D01*
X2531968Y-2217436D02*
X2522444Y-2226960D01*
X2522444Y-2226960D02*
X2503396Y-2236484D01*
X2503396Y-2236484D02*
X2484348Y-2236484D01*
X2484348Y-2236484D02*
X2465301Y-2226960D01*
X2465301Y-2226960D02*
X2455777Y-2217436D01*
X2455777Y-2217436D02*
X2446253Y-2198389D01*
X2446253Y-2198389D02*
X2436729Y-2160293D01*
X2436729Y-2160293D02*
X2436729Y-2112674D01*
X2436729Y-2112674D02*
X2446253Y-2074579D01*
X2446253Y-2074579D02*
X2455777Y-2055531D01*
X2455777Y-2055531D02*
X2465301Y-2046008D01*
X2465301Y-2046008D02*
X2484348Y-2036484D01*
X2741491Y-2236484D02*
X2627206Y-2236484D01*
X2684348Y-2236484D02*
X2684348Y-2036484D01*
X2684348Y-2036484D02*
X2665301Y-2065055D01*
X2665301Y-2065055D02*
X2646253Y-2084103D01*
X2646253Y-2084103D02*
X2627206Y-2093627D01*
X2931967Y-2236484D02*
X2817682Y-2236484D01*
X2874825Y-2236484D02*
X2874825Y-2036484D01*
X2874825Y-2036484D02*
X2855777Y-2065055D01*
X2855777Y-2065055D02*
X2836729Y-2084103D01*
X2836729Y-2084103D02*
X2817682Y-2093627D01*
X3046253Y-2122198D02*
X3027206Y-2112674D01*
X3027206Y-2112674D02*
X3017682Y-2103150D01*
X3017682Y-2103150D02*
X3008158Y-2084103D01*
X3008158Y-2084103D02*
X3008158Y-2074579D01*
X3008158Y-2074579D02*
X3017682Y-2055531D01*
X3017682Y-2055531D02*
X3027206Y-2046008D01*
X3027206Y-2046008D02*
X3046253Y-2036484D01*
X3046253Y-2036484D02*
X3084348Y-2036484D01*
X3084348Y-2036484D02*
X3103396Y-2046008D01*
X3103396Y-2046008D02*
X3112920Y-2055531D01*
X3112920Y-2055531D02*
X3122444Y-2074579D01*
X3122444Y-2074579D02*
X3122444Y-2084103D01*
X3122444Y-2084103D02*
X3112920Y-2103150D01*
X3112920Y-2103150D02*
X3103396Y-2112674D01*
X3103396Y-2112674D02*
X3084348Y-2122198D01*
X3084348Y-2122198D02*
X3046253Y-2122198D01*
X3046253Y-2122198D02*
X3027206Y-2131722D01*
X3027206Y-2131722D02*
X3017682Y-2141246D01*
X3017682Y-2141246D02*
X3008158Y-2160293D01*
X3008158Y-2160293D02*
X3008158Y-2198389D01*
X3008158Y-2198389D02*
X3017682Y-2217436D01*
X3017682Y-2217436D02*
X3027206Y-2226960D01*
X3027206Y-2226960D02*
X3046253Y-2236484D01*
X3046253Y-2236484D02*
X3084348Y-2236484D01*
X3084348Y-2236484D02*
X3103396Y-2226960D01*
X3103396Y-2226960D02*
X3112920Y-2217436D01*
X3112920Y-2217436D02*
X3122444Y-2198389D01*
X3122444Y-2198389D02*
X3122444Y-2160293D01*
X3122444Y-2160293D02*
X3112920Y-2141246D01*
X3112920Y-2141246D02*
X3103396Y-2131722D01*
X3103396Y-2131722D02*
X3084348Y-2122198D01*
X3198634Y-2036484D02*
X3198634Y-2074579D01*
X3274825Y-2036484D02*
X3274825Y-2074579D01*
X3570063Y-2312674D02*
X3560539Y-2303150D01*
X3560539Y-2303150D02*
X3541491Y-2274579D01*
X3541491Y-2274579D02*
X3531968Y-2255531D01*
X3531968Y-2255531D02*
X3522444Y-2226960D01*
X3522444Y-2226960D02*
X3512920Y-2179341D01*
X3512920Y-2179341D02*
X3512920Y-2141246D01*
X3512920Y-2141246D02*
X3522444Y-2093627D01*
X3522444Y-2093627D02*
X3531968Y-2065055D01*
X3531968Y-2065055D02*
X3541491Y-2046008D01*
X3541491Y-2046008D02*
X3560539Y-2017436D01*
X3560539Y-2017436D02*
X3570063Y-2007912D01*
X3636729Y-2055531D02*
X3646253Y-2046008D01*
X3646253Y-2046008D02*
X3665301Y-2036484D01*
X3665301Y-2036484D02*
X3712920Y-2036484D01*
X3712920Y-2036484D02*
X3731968Y-2046008D01*
X3731968Y-2046008D02*
X3741491Y-2055531D01*
X3741491Y-2055531D02*
X3751015Y-2074579D01*
X3751015Y-2074579D02*
X3751015Y-2093627D01*
X3751015Y-2093627D02*
X3741491Y-2122198D01*
X3741491Y-2122198D02*
X3627206Y-2236484D01*
X3627206Y-2236484D02*
X3751015Y-2236484D01*
X3989110Y-2236484D02*
X3989110Y-2036484D01*
X4074825Y-2236484D02*
X4074825Y-2131722D01*
X4074825Y-2131722D02*
X4065301Y-2112674D01*
X4065301Y-2112674D02*
X4046253Y-2103150D01*
X4046253Y-2103150D02*
X4017682Y-2103150D01*
X4017682Y-2103150D02*
X3998634Y-2112674D01*
X3998634Y-2112674D02*
X3989110Y-2122198D01*
X4198634Y-2236484D02*
X4179587Y-2226960D01*
X4179587Y-2226960D02*
X4170063Y-2217436D01*
X4170063Y-2217436D02*
X4160539Y-2198389D01*
X4160539Y-2198389D02*
X4160539Y-2141246D01*
X4160539Y-2141246D02*
X4170063Y-2122198D01*
X4170063Y-2122198D02*
X4179587Y-2112674D01*
X4179587Y-2112674D02*
X4198634Y-2103150D01*
X4198634Y-2103150D02*
X4227206Y-2103150D01*
X4227206Y-2103150D02*
X4246253Y-2112674D01*
X4246253Y-2112674D02*
X4255777Y-2122198D01*
X4255777Y-2122198D02*
X4265301Y-2141246D01*
X4265301Y-2141246D02*
X4265301Y-2198389D01*
X4265301Y-2198389D02*
X4255777Y-2217436D01*
X4255777Y-2217436D02*
X4246253Y-2226960D01*
X4246253Y-2226960D02*
X4227206Y-2236484D01*
X4227206Y-2236484D02*
X4198634Y-2236484D01*
X4379587Y-2236484D02*
X4360539Y-2226960D01*
X4360539Y-2226960D02*
X4351015Y-2207912D01*
X4351015Y-2207912D02*
X4351015Y-2036484D01*
X4531968Y-2226960D02*
X4512920Y-2236484D01*
X4512920Y-2236484D02*
X4474825Y-2236484D01*
X4474825Y-2236484D02*
X4455777Y-2226960D01*
X4455777Y-2226960D02*
X4446253Y-2207912D01*
X4446253Y-2207912D02*
X4446253Y-2131722D01*
X4446253Y-2131722D02*
X4455777Y-2112674D01*
X4455777Y-2112674D02*
X4474825Y-2103150D01*
X4474825Y-2103150D02*
X4512920Y-2103150D01*
X4512920Y-2103150D02*
X4531968Y-2112674D01*
X4531968Y-2112674D02*
X4541492Y-2131722D01*
X4541492Y-2131722D02*
X4541492Y-2150770D01*
X4541492Y-2150770D02*
X4446253Y-2169817D01*
X4617682Y-2226960D02*
X4636730Y-2236484D01*
X4636730Y-2236484D02*
X4674825Y-2236484D01*
X4674825Y-2236484D02*
X4693873Y-2226960D01*
X4693873Y-2226960D02*
X4703396Y-2207912D01*
X4703396Y-2207912D02*
X4703396Y-2198389D01*
X4703396Y-2198389D02*
X4693873Y-2179341D01*
X4693873Y-2179341D02*
X4674825Y-2169817D01*
X4674825Y-2169817D02*
X4646253Y-2169817D01*
X4646253Y-2169817D02*
X4627206Y-2160293D01*
X4627206Y-2160293D02*
X4617682Y-2141246D01*
X4617682Y-2141246D02*
X4617682Y-2131722D01*
X4617682Y-2131722D02*
X4627206Y-2112674D01*
X4627206Y-2112674D02*
X4646253Y-2103150D01*
X4646253Y-2103150D02*
X4674825Y-2103150D01*
X4674825Y-2103150D02*
X4693873Y-2112674D01*
X4770063Y-2312674D02*
X4779587Y-2303150D01*
X4779587Y-2303150D02*
X4798634Y-2274579D01*
X4798634Y-2274579D02*
X4808158Y-2255531D01*
X4808158Y-2255531D02*
X4817682Y-2226960D01*
X4817682Y-2226960D02*
X4827206Y-2179341D01*
X4827206Y-2179341D02*
X4827206Y-2141246D01*
X4827206Y-2141246D02*
X4817682Y-2093627D01*
X4817682Y-2093627D02*
X4808158Y-2065055D01*
X4808158Y-2065055D02*
X4798634Y-2046008D01*
X4798634Y-2046008D02*
X4779587Y-2017436D01*
X4779587Y-2017436D02*
X4770063Y-2007912D01*
D10*
X-5000Y-2409000D02*
G75*
G02*
X-95000Y-2409000I-45000J0D01*
G01*
X-95000Y-2409000D02*
G75*
G02*
X-5000Y-2409000I45000J0D01*
G01*
D11*
X293872Y-2300484D02*
X312920Y-2300484D01*
X312920Y-2300484D02*
X331967Y-2310008D01*
X331967Y-2310008D02*
X341491Y-2319531D01*
X341491Y-2319531D02*
X351015Y-2338579D01*
X351015Y-2338579D02*
X360539Y-2376674D01*
X360539Y-2376674D02*
X360539Y-2424293D01*
X360539Y-2424293D02*
X351015Y-2462389D01*
X351015Y-2462389D02*
X341491Y-2481436D01*
X341491Y-2481436D02*
X331967Y-2490960D01*
X331967Y-2490960D02*
X312920Y-2500484D01*
X312920Y-2500484D02*
X293872Y-2500484D01*
X293872Y-2500484D02*
X274824Y-2490960D01*
X274824Y-2490960D02*
X265301Y-2481436D01*
X265301Y-2481436D02*
X255777Y-2462389D01*
X255777Y-2462389D02*
X246253Y-2424293D01*
X246253Y-2424293D02*
X246253Y-2376674D01*
X246253Y-2376674D02*
X255777Y-2338579D01*
X255777Y-2338579D02*
X265301Y-2319531D01*
X265301Y-2319531D02*
X274824Y-2310008D01*
X274824Y-2310008D02*
X293872Y-2300484D01*
X446253Y-2481436D02*
X455777Y-2490960D01*
X455777Y-2490960D02*
X446253Y-2500484D01*
X446253Y-2500484D02*
X436729Y-2490960D01*
X436729Y-2490960D02*
X446253Y-2481436D01*
X446253Y-2481436D02*
X446253Y-2500484D01*
X551015Y-2500484D02*
X589110Y-2500484D01*
X589110Y-2500484D02*
X608158Y-2490960D01*
X608158Y-2490960D02*
X617682Y-2481436D01*
X617682Y-2481436D02*
X636729Y-2452865D01*
X636729Y-2452865D02*
X646253Y-2414770D01*
X646253Y-2414770D02*
X646253Y-2338579D01*
X646253Y-2338579D02*
X636729Y-2319531D01*
X636729Y-2319531D02*
X627205Y-2310008D01*
X627205Y-2310008D02*
X608158Y-2300484D01*
X608158Y-2300484D02*
X570063Y-2300484D01*
X570063Y-2300484D02*
X551015Y-2310008D01*
X551015Y-2310008D02*
X541491Y-2319531D01*
X541491Y-2319531D02*
X531967Y-2338579D01*
X531967Y-2338579D02*
X531967Y-2386198D01*
X531967Y-2386198D02*
X541491Y-2405246D01*
X541491Y-2405246D02*
X551015Y-2414770D01*
X551015Y-2414770D02*
X570063Y-2424293D01*
X570063Y-2424293D02*
X608158Y-2424293D01*
X608158Y-2424293D02*
X627205Y-2414770D01*
X627205Y-2414770D02*
X636729Y-2405246D01*
X636729Y-2405246D02*
X646253Y-2386198D01*
X770062Y-2300484D02*
X789110Y-2300484D01*
X789110Y-2300484D02*
X808158Y-2310008D01*
X808158Y-2310008D02*
X817682Y-2319531D01*
X817682Y-2319531D02*
X827205Y-2338579D01*
X827205Y-2338579D02*
X836729Y-2376674D01*
X836729Y-2376674D02*
X836729Y-2424293D01*
X836729Y-2424293D02*
X827205Y-2462389D01*
X827205Y-2462389D02*
X817682Y-2481436D01*
X817682Y-2481436D02*
X808158Y-2490960D01*
X808158Y-2490960D02*
X789110Y-2500484D01*
X789110Y-2500484D02*
X770062Y-2500484D01*
X770062Y-2500484D02*
X751015Y-2490960D01*
X751015Y-2490960D02*
X741491Y-2481436D01*
X741491Y-2481436D02*
X731967Y-2462389D01*
X731967Y-2462389D02*
X722443Y-2424293D01*
X722443Y-2424293D02*
X722443Y-2376674D01*
X722443Y-2376674D02*
X731967Y-2338579D01*
X731967Y-2338579D02*
X741491Y-2319531D01*
X741491Y-2319531D02*
X751015Y-2310008D01*
X751015Y-2310008D02*
X770062Y-2300484D01*
X960539Y-2300484D02*
X979586Y-2300484D01*
X979586Y-2300484D02*
X998634Y-2310008D01*
X998634Y-2310008D02*
X1008158Y-2319531D01*
X1008158Y-2319531D02*
X1017682Y-2338579D01*
X1017682Y-2338579D02*
X1027205Y-2376674D01*
X1027205Y-2376674D02*
X1027205Y-2424293D01*
X1027205Y-2424293D02*
X1017682Y-2462389D01*
X1017682Y-2462389D02*
X1008158Y-2481436D01*
X1008158Y-2481436D02*
X998634Y-2490960D01*
X998634Y-2490960D02*
X979586Y-2500484D01*
X979586Y-2500484D02*
X960539Y-2500484D01*
X960539Y-2500484D02*
X941491Y-2490960D01*
X941491Y-2490960D02*
X931967Y-2481436D01*
X931967Y-2481436D02*
X922443Y-2462389D01*
X922443Y-2462389D02*
X912920Y-2424293D01*
X912920Y-2424293D02*
X912920Y-2376674D01*
X912920Y-2376674D02*
X922443Y-2338579D01*
X922443Y-2338579D02*
X931967Y-2319531D01*
X931967Y-2319531D02*
X941491Y-2310008D01*
X941491Y-2310008D02*
X960539Y-2300484D01*
X1112920Y-2500484D02*
X1112920Y-2367150D01*
X1112920Y-2386198D02*
X1122444Y-2376674D01*
X1122444Y-2376674D02*
X1141491Y-2367150D01*
X1141491Y-2367150D02*
X1170063Y-2367150D01*
X1170063Y-2367150D02*
X1189110Y-2376674D01*
X1189110Y-2376674D02*
X1198634Y-2395722D01*
X1198634Y-2395722D02*
X1198634Y-2500484D01*
X1198634Y-2395722D02*
X1208158Y-2376674D01*
X1208158Y-2376674D02*
X1227205Y-2367150D01*
X1227205Y-2367150D02*
X1255777Y-2367150D01*
X1255777Y-2367150D02*
X1274825Y-2376674D01*
X1274825Y-2376674D02*
X1284348Y-2395722D01*
X1284348Y-2395722D02*
X1284348Y-2500484D01*
X1379586Y-2500484D02*
X1379586Y-2367150D01*
X1379586Y-2386198D02*
X1389110Y-2376674D01*
X1389110Y-2376674D02*
X1408158Y-2367150D01*
X1408158Y-2367150D02*
X1436729Y-2367150D01*
X1436729Y-2367150D02*
X1455777Y-2376674D01*
X1455777Y-2376674D02*
X1465301Y-2395722D01*
X1465301Y-2395722D02*
X1465301Y-2500484D01*
X1465301Y-2395722D02*
X1474824Y-2376674D01*
X1474824Y-2376674D02*
X1493872Y-2367150D01*
X1493872Y-2367150D02*
X1522443Y-2367150D01*
X1522443Y-2367150D02*
X1541491Y-2376674D01*
X1541491Y-2376674D02*
X1551015Y-2395722D01*
X1551015Y-2395722D02*
X1551015Y-2500484D01*
X1941491Y-2290960D02*
X1770063Y-2548103D01*
X2198634Y-2300484D02*
X2217682Y-2300484D01*
X2217682Y-2300484D02*
X2236729Y-2310008D01*
X2236729Y-2310008D02*
X2246253Y-2319531D01*
X2246253Y-2319531D02*
X2255777Y-2338579D01*
X2255777Y-2338579D02*
X2265301Y-2376674D01*
X2265301Y-2376674D02*
X2265301Y-2424293D01*
X2265301Y-2424293D02*
X2255777Y-2462389D01*
X2255777Y-2462389D02*
X2246253Y-2481436D01*
X2246253Y-2481436D02*
X2236729Y-2490960D01*
X2236729Y-2490960D02*
X2217682Y-2500484D01*
X2217682Y-2500484D02*
X2198634Y-2500484D01*
X2198634Y-2500484D02*
X2179587Y-2490960D01*
X2179587Y-2490960D02*
X2170063Y-2481436D01*
X2170063Y-2481436D02*
X2160539Y-2462389D01*
X2160539Y-2462389D02*
X2151015Y-2424293D01*
X2151015Y-2424293D02*
X2151015Y-2376674D01*
X2151015Y-2376674D02*
X2160539Y-2338579D01*
X2160539Y-2338579D02*
X2170063Y-2319531D01*
X2170063Y-2319531D02*
X2179587Y-2310008D01*
X2179587Y-2310008D02*
X2198634Y-2300484D01*
X2351015Y-2481436D02*
X2360539Y-2490960D01*
X2360539Y-2490960D02*
X2351015Y-2500484D01*
X2351015Y-2500484D02*
X2341491Y-2490960D01*
X2341491Y-2490960D02*
X2351015Y-2481436D01*
X2351015Y-2481436D02*
X2351015Y-2500484D01*
X2484348Y-2300484D02*
X2503396Y-2300484D01*
X2503396Y-2300484D02*
X2522444Y-2310008D01*
X2522444Y-2310008D02*
X2531968Y-2319531D01*
X2531968Y-2319531D02*
X2541491Y-2338579D01*
X2541491Y-2338579D02*
X2551015Y-2376674D01*
X2551015Y-2376674D02*
X2551015Y-2424293D01*
X2551015Y-2424293D02*
X2541491Y-2462389D01*
X2541491Y-2462389D02*
X2531968Y-2481436D01*
X2531968Y-2481436D02*
X2522444Y-2490960D01*
X2522444Y-2490960D02*
X2503396Y-2500484D01*
X2503396Y-2500484D02*
X2484348Y-2500484D01*
X2484348Y-2500484D02*
X2465301Y-2490960D01*
X2465301Y-2490960D02*
X2455777Y-2481436D01*
X2455777Y-2481436D02*
X2446253Y-2462389D01*
X2446253Y-2462389D02*
X2436729Y-2424293D01*
X2436729Y-2424293D02*
X2436729Y-2376674D01*
X2436729Y-2376674D02*
X2446253Y-2338579D01*
X2446253Y-2338579D02*
X2455777Y-2319531D01*
X2455777Y-2319531D02*
X2465301Y-2310008D01*
X2465301Y-2310008D02*
X2484348Y-2300484D01*
X2617682Y-2300484D02*
X2741491Y-2300484D01*
X2741491Y-2300484D02*
X2674825Y-2376674D01*
X2674825Y-2376674D02*
X2703396Y-2376674D01*
X2703396Y-2376674D02*
X2722444Y-2386198D01*
X2722444Y-2386198D02*
X2731968Y-2395722D01*
X2731968Y-2395722D02*
X2741491Y-2414770D01*
X2741491Y-2414770D02*
X2741491Y-2462389D01*
X2741491Y-2462389D02*
X2731968Y-2481436D01*
X2731968Y-2481436D02*
X2722444Y-2490960D01*
X2722444Y-2490960D02*
X2703396Y-2500484D01*
X2703396Y-2500484D02*
X2646253Y-2500484D01*
X2646253Y-2500484D02*
X2627206Y-2490960D01*
X2627206Y-2490960D02*
X2617682Y-2481436D01*
X2922444Y-2300484D02*
X2827206Y-2300484D01*
X2827206Y-2300484D02*
X2817682Y-2395722D01*
X2817682Y-2395722D02*
X2827206Y-2386198D01*
X2827206Y-2386198D02*
X2846253Y-2376674D01*
X2846253Y-2376674D02*
X2893872Y-2376674D01*
X2893872Y-2376674D02*
X2912920Y-2386198D01*
X2912920Y-2386198D02*
X2922444Y-2395722D01*
X2922444Y-2395722D02*
X2931967Y-2414770D01*
X2931967Y-2414770D02*
X2931967Y-2462389D01*
X2931967Y-2462389D02*
X2922444Y-2481436D01*
X2922444Y-2481436D02*
X2912920Y-2490960D01*
X2912920Y-2490960D02*
X2893872Y-2500484D01*
X2893872Y-2500484D02*
X2846253Y-2500484D01*
X2846253Y-2500484D02*
X2827206Y-2490960D01*
X2827206Y-2490960D02*
X2817682Y-2481436D01*
X3103396Y-2367150D02*
X3103396Y-2500484D01*
X3055777Y-2290960D02*
X3008158Y-2433817D01*
X3008158Y-2433817D02*
X3131967Y-2433817D01*
X3198634Y-2300484D02*
X3198634Y-2338579D01*
X3274825Y-2300484D02*
X3274825Y-2338579D01*
X3570063Y-2576674D02*
X3560539Y-2567150D01*
X3560539Y-2567150D02*
X3541491Y-2538579D01*
X3541491Y-2538579D02*
X3531968Y-2519531D01*
X3531968Y-2519531D02*
X3522444Y-2490960D01*
X3522444Y-2490960D02*
X3512920Y-2443341D01*
X3512920Y-2443341D02*
X3512920Y-2405246D01*
X3512920Y-2405246D02*
X3522444Y-2357627D01*
X3522444Y-2357627D02*
X3531968Y-2329055D01*
X3531968Y-2329055D02*
X3541491Y-2310008D01*
X3541491Y-2310008D02*
X3560539Y-2281436D01*
X3560539Y-2281436D02*
X3570063Y-2271912D01*
X3636729Y-2319531D02*
X3646253Y-2310008D01*
X3646253Y-2310008D02*
X3665301Y-2300484D01*
X3665301Y-2300484D02*
X3712920Y-2300484D01*
X3712920Y-2300484D02*
X3731968Y-2310008D01*
X3731968Y-2310008D02*
X3741491Y-2319531D01*
X3741491Y-2319531D02*
X3751015Y-2338579D01*
X3751015Y-2338579D02*
X3751015Y-2357627D01*
X3751015Y-2357627D02*
X3741491Y-2386198D01*
X3741491Y-2386198D02*
X3627206Y-2500484D01*
X3627206Y-2500484D02*
X3751015Y-2500484D01*
X3922444Y-2367150D02*
X3922444Y-2500484D01*
X3874825Y-2290960D02*
X3827206Y-2433817D01*
X3827206Y-2433817D02*
X3951015Y-2433817D01*
X4179587Y-2500484D02*
X4179587Y-2300484D01*
X4265301Y-2500484D02*
X4265301Y-2395722D01*
X4265301Y-2395722D02*
X4255777Y-2376674D01*
X4255777Y-2376674D02*
X4236730Y-2367150D01*
X4236730Y-2367150D02*
X4208158Y-2367150D01*
X4208158Y-2367150D02*
X4189110Y-2376674D01*
X4189110Y-2376674D02*
X4179587Y-2386198D01*
X4389111Y-2500484D02*
X4370063Y-2490960D01*
X4370063Y-2490960D02*
X4360539Y-2481436D01*
X4360539Y-2481436D02*
X4351015Y-2462389D01*
X4351015Y-2462389D02*
X4351015Y-2405246D01*
X4351015Y-2405246D02*
X4360539Y-2386198D01*
X4360539Y-2386198D02*
X4370063Y-2376674D01*
X4370063Y-2376674D02*
X4389111Y-2367150D01*
X4389111Y-2367150D02*
X4417682Y-2367150D01*
X4417682Y-2367150D02*
X4436730Y-2376674D01*
X4436730Y-2376674D02*
X4446253Y-2386198D01*
X4446253Y-2386198D02*
X4455777Y-2405246D01*
X4455777Y-2405246D02*
X4455777Y-2462389D01*
X4455777Y-2462389D02*
X4446253Y-2481436D01*
X4446253Y-2481436D02*
X4436730Y-2490960D01*
X4436730Y-2490960D02*
X4417682Y-2500484D01*
X4417682Y-2500484D02*
X4389111Y-2500484D01*
X4570063Y-2500484D02*
X4551015Y-2490960D01*
X4551015Y-2490960D02*
X4541492Y-2471912D01*
X4541492Y-2471912D02*
X4541492Y-2300484D01*
X4722444Y-2490960D02*
X4703396Y-2500484D01*
X4703396Y-2500484D02*
X4665301Y-2500484D01*
X4665301Y-2500484D02*
X4646253Y-2490960D01*
X4646253Y-2490960D02*
X4636730Y-2471912D01*
X4636730Y-2471912D02*
X4636730Y-2395722D01*
X4636730Y-2395722D02*
X4646253Y-2376674D01*
X4646253Y-2376674D02*
X4665301Y-2367150D01*
X4665301Y-2367150D02*
X4703396Y-2367150D01*
X4703396Y-2367150D02*
X4722444Y-2376674D01*
X4722444Y-2376674D02*
X4731968Y-2395722D01*
X4731968Y-2395722D02*
X4731968Y-2414770D01*
X4731968Y-2414770D02*
X4636730Y-2433817D01*
X4808158Y-2490960D02*
X4827206Y-2500484D01*
X4827206Y-2500484D02*
X4865301Y-2500484D01*
X4865301Y-2500484D02*
X4884349Y-2490960D01*
X4884349Y-2490960D02*
X4893873Y-2471912D01*
X4893873Y-2471912D02*
X4893873Y-2462389D01*
X4893873Y-2462389D02*
X4884349Y-2443341D01*
X4884349Y-2443341D02*
X4865301Y-2433817D01*
X4865301Y-2433817D02*
X4836730Y-2433817D01*
X4836730Y-2433817D02*
X4817682Y-2424293D01*
X4817682Y-2424293D02*
X4808158Y-2405246D01*
X4808158Y-2405246D02*
X4808158Y-2395722D01*
X4808158Y-2395722D02*
X4817682Y-2376674D01*
X4817682Y-2376674D02*
X4836730Y-2367150D01*
X4836730Y-2367150D02*
X4865301Y-2367150D01*
X4865301Y-2367150D02*
X4884349Y-2376674D01*
X4960539Y-2576674D02*
X4970063Y-2567150D01*
X4970063Y-2567150D02*
X4989111Y-2538579D01*
X4989111Y-2538579D02*
X4998634Y-2519531D01*
X4998634Y-2519531D02*
X5008158Y-2490960D01*
X5008158Y-2490960D02*
X5017682Y-2443341D01*
X5017682Y-2443341D02*
X5017682Y-2405246D01*
X5017682Y-2405246D02*
X5008158Y-2357627D01*
X5008158Y-2357627D02*
X4998634Y-2329055D01*
X4998634Y-2329055D02*
X4989111Y-2310008D01*
X4989111Y-2310008D02*
X4970063Y-2281436D01*
X4970063Y-2281436D02*
X4960539Y-2271912D01*
D10*
X-55000Y-2623000D02*
X-55000Y-2723000D01*
X-105000Y-2673000D02*
X-5000Y-2673000D01*
D11*
X360539Y-2764484D02*
X246253Y-2764484D01*
X303396Y-2764484D02*
X303396Y-2564484D01*
X303396Y-2564484D02*
X284348Y-2593055D01*
X284348Y-2593055D02*
X265301Y-2612103D01*
X265301Y-2612103D02*
X246253Y-2621627D01*
X446253Y-2745436D02*
X455777Y-2754960D01*
X455777Y-2754960D02*
X446253Y-2764484D01*
X446253Y-2764484D02*
X436729Y-2754960D01*
X436729Y-2754960D02*
X446253Y-2745436D01*
X446253Y-2745436D02*
X446253Y-2764484D01*
X579586Y-2564484D02*
X598634Y-2564484D01*
X598634Y-2564484D02*
X617682Y-2574008D01*
X617682Y-2574008D02*
X627205Y-2583531D01*
X627205Y-2583531D02*
X636729Y-2602579D01*
X636729Y-2602579D02*
X646253Y-2640674D01*
X646253Y-2640674D02*
X646253Y-2688293D01*
X646253Y-2688293D02*
X636729Y-2726389D01*
X636729Y-2726389D02*
X627205Y-2745436D01*
X627205Y-2745436D02*
X617682Y-2754960D01*
X617682Y-2754960D02*
X598634Y-2764484D01*
X598634Y-2764484D02*
X579586Y-2764484D01*
X579586Y-2764484D02*
X560539Y-2754960D01*
X560539Y-2754960D02*
X551015Y-2745436D01*
X551015Y-2745436D02*
X541491Y-2726389D01*
X541491Y-2726389D02*
X531967Y-2688293D01*
X531967Y-2688293D02*
X531967Y-2640674D01*
X531967Y-2640674D02*
X541491Y-2602579D01*
X541491Y-2602579D02*
X551015Y-2583531D01*
X551015Y-2583531D02*
X560539Y-2574008D01*
X560539Y-2574008D02*
X579586Y-2564484D01*
X770062Y-2564484D02*
X789110Y-2564484D01*
X789110Y-2564484D02*
X808158Y-2574008D01*
X808158Y-2574008D02*
X817682Y-2583531D01*
X817682Y-2583531D02*
X827205Y-2602579D01*
X827205Y-2602579D02*
X836729Y-2640674D01*
X836729Y-2640674D02*
X836729Y-2688293D01*
X836729Y-2688293D02*
X827205Y-2726389D01*
X827205Y-2726389D02*
X817682Y-2745436D01*
X817682Y-2745436D02*
X808158Y-2754960D01*
X808158Y-2754960D02*
X789110Y-2764484D01*
X789110Y-2764484D02*
X770062Y-2764484D01*
X770062Y-2764484D02*
X751015Y-2754960D01*
X751015Y-2754960D02*
X741491Y-2745436D01*
X741491Y-2745436D02*
X731967Y-2726389D01*
X731967Y-2726389D02*
X722443Y-2688293D01*
X722443Y-2688293D02*
X722443Y-2640674D01*
X722443Y-2640674D02*
X731967Y-2602579D01*
X731967Y-2602579D02*
X741491Y-2583531D01*
X741491Y-2583531D02*
X751015Y-2574008D01*
X751015Y-2574008D02*
X770062Y-2564484D01*
X960539Y-2564484D02*
X979586Y-2564484D01*
X979586Y-2564484D02*
X998634Y-2574008D01*
X998634Y-2574008D02*
X1008158Y-2583531D01*
X1008158Y-2583531D02*
X1017682Y-2602579D01*
X1017682Y-2602579D02*
X1027205Y-2640674D01*
X1027205Y-2640674D02*
X1027205Y-2688293D01*
X1027205Y-2688293D02*
X1017682Y-2726389D01*
X1017682Y-2726389D02*
X1008158Y-2745436D01*
X1008158Y-2745436D02*
X998634Y-2754960D01*
X998634Y-2754960D02*
X979586Y-2764484D01*
X979586Y-2764484D02*
X960539Y-2764484D01*
X960539Y-2764484D02*
X941491Y-2754960D01*
X941491Y-2754960D02*
X931967Y-2745436D01*
X931967Y-2745436D02*
X922443Y-2726389D01*
X922443Y-2726389D02*
X912920Y-2688293D01*
X912920Y-2688293D02*
X912920Y-2640674D01*
X912920Y-2640674D02*
X922443Y-2602579D01*
X922443Y-2602579D02*
X931967Y-2583531D01*
X931967Y-2583531D02*
X941491Y-2574008D01*
X941491Y-2574008D02*
X960539Y-2564484D01*
X1112920Y-2764484D02*
X1112920Y-2631150D01*
X1112920Y-2650198D02*
X1122444Y-2640674D01*
X1122444Y-2640674D02*
X1141491Y-2631150D01*
X1141491Y-2631150D02*
X1170063Y-2631150D01*
X1170063Y-2631150D02*
X1189110Y-2640674D01*
X1189110Y-2640674D02*
X1198634Y-2659722D01*
X1198634Y-2659722D02*
X1198634Y-2764484D01*
X1198634Y-2659722D02*
X1208158Y-2640674D01*
X1208158Y-2640674D02*
X1227205Y-2631150D01*
X1227205Y-2631150D02*
X1255777Y-2631150D01*
X1255777Y-2631150D02*
X1274825Y-2640674D01*
X1274825Y-2640674D02*
X1284348Y-2659722D01*
X1284348Y-2659722D02*
X1284348Y-2764484D01*
X1379586Y-2764484D02*
X1379586Y-2631150D01*
X1379586Y-2650198D02*
X1389110Y-2640674D01*
X1389110Y-2640674D02*
X1408158Y-2631150D01*
X1408158Y-2631150D02*
X1436729Y-2631150D01*
X1436729Y-2631150D02*
X1455777Y-2640674D01*
X1455777Y-2640674D02*
X1465301Y-2659722D01*
X1465301Y-2659722D02*
X1465301Y-2764484D01*
X1465301Y-2659722D02*
X1474824Y-2640674D01*
X1474824Y-2640674D02*
X1493872Y-2631150D01*
X1493872Y-2631150D02*
X1522443Y-2631150D01*
X1522443Y-2631150D02*
X1541491Y-2640674D01*
X1541491Y-2640674D02*
X1551015Y-2659722D01*
X1551015Y-2659722D02*
X1551015Y-2764484D01*
X1941491Y-2554960D02*
X1770063Y-2812103D01*
X2198634Y-2564484D02*
X2217682Y-2564484D01*
X2217682Y-2564484D02*
X2236729Y-2574008D01*
X2236729Y-2574008D02*
X2246253Y-2583531D01*
X2246253Y-2583531D02*
X2255777Y-2602579D01*
X2255777Y-2602579D02*
X2265301Y-2640674D01*
X2265301Y-2640674D02*
X2265301Y-2688293D01*
X2265301Y-2688293D02*
X2255777Y-2726389D01*
X2255777Y-2726389D02*
X2246253Y-2745436D01*
X2246253Y-2745436D02*
X2236729Y-2754960D01*
X2236729Y-2754960D02*
X2217682Y-2764484D01*
X2217682Y-2764484D02*
X2198634Y-2764484D01*
X2198634Y-2764484D02*
X2179587Y-2754960D01*
X2179587Y-2754960D02*
X2170063Y-2745436D01*
X2170063Y-2745436D02*
X2160539Y-2726389D01*
X2160539Y-2726389D02*
X2151015Y-2688293D01*
X2151015Y-2688293D02*
X2151015Y-2640674D01*
X2151015Y-2640674D02*
X2160539Y-2602579D01*
X2160539Y-2602579D02*
X2170063Y-2583531D01*
X2170063Y-2583531D02*
X2179587Y-2574008D01*
X2179587Y-2574008D02*
X2198634Y-2564484D01*
X2351015Y-2745436D02*
X2360539Y-2754960D01*
X2360539Y-2754960D02*
X2351015Y-2764484D01*
X2351015Y-2764484D02*
X2341491Y-2754960D01*
X2341491Y-2754960D02*
X2351015Y-2745436D01*
X2351015Y-2745436D02*
X2351015Y-2764484D01*
X2484348Y-2564484D02*
X2503396Y-2564484D01*
X2503396Y-2564484D02*
X2522444Y-2574008D01*
X2522444Y-2574008D02*
X2531968Y-2583531D01*
X2531968Y-2583531D02*
X2541491Y-2602579D01*
X2541491Y-2602579D02*
X2551015Y-2640674D01*
X2551015Y-2640674D02*
X2551015Y-2688293D01*
X2551015Y-2688293D02*
X2541491Y-2726389D01*
X2541491Y-2726389D02*
X2531968Y-2745436D01*
X2531968Y-2745436D02*
X2522444Y-2754960D01*
X2522444Y-2754960D02*
X2503396Y-2764484D01*
X2503396Y-2764484D02*
X2484348Y-2764484D01*
X2484348Y-2764484D02*
X2465301Y-2754960D01*
X2465301Y-2754960D02*
X2455777Y-2745436D01*
X2455777Y-2745436D02*
X2446253Y-2726389D01*
X2446253Y-2726389D02*
X2436729Y-2688293D01*
X2436729Y-2688293D02*
X2436729Y-2640674D01*
X2436729Y-2640674D02*
X2446253Y-2602579D01*
X2446253Y-2602579D02*
X2455777Y-2583531D01*
X2455777Y-2583531D02*
X2465301Y-2574008D01*
X2465301Y-2574008D02*
X2484348Y-2564484D01*
X2617682Y-2564484D02*
X2741491Y-2564484D01*
X2741491Y-2564484D02*
X2674825Y-2640674D01*
X2674825Y-2640674D02*
X2703396Y-2640674D01*
X2703396Y-2640674D02*
X2722444Y-2650198D01*
X2722444Y-2650198D02*
X2731968Y-2659722D01*
X2731968Y-2659722D02*
X2741491Y-2678770D01*
X2741491Y-2678770D02*
X2741491Y-2726389D01*
X2741491Y-2726389D02*
X2731968Y-2745436D01*
X2731968Y-2745436D02*
X2722444Y-2754960D01*
X2722444Y-2754960D02*
X2703396Y-2764484D01*
X2703396Y-2764484D02*
X2646253Y-2764484D01*
X2646253Y-2764484D02*
X2627206Y-2754960D01*
X2627206Y-2754960D02*
X2617682Y-2745436D01*
X2836729Y-2764484D02*
X2874825Y-2764484D01*
X2874825Y-2764484D02*
X2893872Y-2754960D01*
X2893872Y-2754960D02*
X2903396Y-2745436D01*
X2903396Y-2745436D02*
X2922444Y-2716865D01*
X2922444Y-2716865D02*
X2931967Y-2678770D01*
X2931967Y-2678770D02*
X2931967Y-2602579D01*
X2931967Y-2602579D02*
X2922444Y-2583531D01*
X2922444Y-2583531D02*
X2912920Y-2574008D01*
X2912920Y-2574008D02*
X2893872Y-2564484D01*
X2893872Y-2564484D02*
X2855777Y-2564484D01*
X2855777Y-2564484D02*
X2836729Y-2574008D01*
X2836729Y-2574008D02*
X2827206Y-2583531D01*
X2827206Y-2583531D02*
X2817682Y-2602579D01*
X2817682Y-2602579D02*
X2817682Y-2650198D01*
X2817682Y-2650198D02*
X2827206Y-2669246D01*
X2827206Y-2669246D02*
X2836729Y-2678770D01*
X2836729Y-2678770D02*
X2855777Y-2688293D01*
X2855777Y-2688293D02*
X2893872Y-2688293D01*
X2893872Y-2688293D02*
X2912920Y-2678770D01*
X2912920Y-2678770D02*
X2922444Y-2669246D01*
X2922444Y-2669246D02*
X2931967Y-2650198D01*
X3103396Y-2631150D02*
X3103396Y-2764484D01*
X3055777Y-2554960D02*
X3008158Y-2697817D01*
X3008158Y-2697817D02*
X3131967Y-2697817D01*
X3198634Y-2564484D02*
X3198634Y-2602579D01*
X3274825Y-2564484D02*
X3274825Y-2602579D01*
X3570063Y-2840674D02*
X3560539Y-2831150D01*
X3560539Y-2831150D02*
X3541491Y-2802579D01*
X3541491Y-2802579D02*
X3531968Y-2783531D01*
X3531968Y-2783531D02*
X3522444Y-2754960D01*
X3522444Y-2754960D02*
X3512920Y-2707341D01*
X3512920Y-2707341D02*
X3512920Y-2669246D01*
X3512920Y-2669246D02*
X3522444Y-2621627D01*
X3522444Y-2621627D02*
X3531968Y-2593055D01*
X3531968Y-2593055D02*
X3541491Y-2574008D01*
X3541491Y-2574008D02*
X3560539Y-2545436D01*
X3560539Y-2545436D02*
X3570063Y-2535912D01*
X3751015Y-2764484D02*
X3636729Y-2764484D01*
X3693872Y-2764484D02*
X3693872Y-2564484D01*
X3693872Y-2564484D02*
X3674825Y-2593055D01*
X3674825Y-2593055D02*
X3655777Y-2612103D01*
X3655777Y-2612103D02*
X3636729Y-2621627D01*
X3874825Y-2564484D02*
X3893872Y-2564484D01*
X3893872Y-2564484D02*
X3912920Y-2574008D01*
X3912920Y-2574008D02*
X3922444Y-2583531D01*
X3922444Y-2583531D02*
X3931968Y-2602579D01*
X3931968Y-2602579D02*
X3941491Y-2640674D01*
X3941491Y-2640674D02*
X3941491Y-2688293D01*
X3941491Y-2688293D02*
X3931968Y-2726389D01*
X3931968Y-2726389D02*
X3922444Y-2745436D01*
X3922444Y-2745436D02*
X3912920Y-2754960D01*
X3912920Y-2754960D02*
X3893872Y-2764484D01*
X3893872Y-2764484D02*
X3874825Y-2764484D01*
X3874825Y-2764484D02*
X3855777Y-2754960D01*
X3855777Y-2754960D02*
X3846253Y-2745436D01*
X3846253Y-2745436D02*
X3836729Y-2726389D01*
X3836729Y-2726389D02*
X3827206Y-2688293D01*
X3827206Y-2688293D02*
X3827206Y-2640674D01*
X3827206Y-2640674D02*
X3836729Y-2602579D01*
X3836729Y-2602579D02*
X3846253Y-2583531D01*
X3846253Y-2583531D02*
X3855777Y-2574008D01*
X3855777Y-2574008D02*
X3874825Y-2564484D01*
X4179587Y-2764484D02*
X4179587Y-2564484D01*
X4265301Y-2764484D02*
X4265301Y-2659722D01*
X4265301Y-2659722D02*
X4255777Y-2640674D01*
X4255777Y-2640674D02*
X4236730Y-2631150D01*
X4236730Y-2631150D02*
X4208158Y-2631150D01*
X4208158Y-2631150D02*
X4189110Y-2640674D01*
X4189110Y-2640674D02*
X4179587Y-2650198D01*
X4389111Y-2764484D02*
X4370063Y-2754960D01*
X4370063Y-2754960D02*
X4360539Y-2745436D01*
X4360539Y-2745436D02*
X4351015Y-2726389D01*
X4351015Y-2726389D02*
X4351015Y-2669246D01*
X4351015Y-2669246D02*
X4360539Y-2650198D01*
X4360539Y-2650198D02*
X4370063Y-2640674D01*
X4370063Y-2640674D02*
X4389111Y-2631150D01*
X4389111Y-2631150D02*
X4417682Y-2631150D01*
X4417682Y-2631150D02*
X4436730Y-2640674D01*
X4436730Y-2640674D02*
X4446253Y-2650198D01*
X4446253Y-2650198D02*
X4455777Y-2669246D01*
X4455777Y-2669246D02*
X4455777Y-2726389D01*
X4455777Y-2726389D02*
X4446253Y-2745436D01*
X4446253Y-2745436D02*
X4436730Y-2754960D01*
X4436730Y-2754960D02*
X4417682Y-2764484D01*
X4417682Y-2764484D02*
X4389111Y-2764484D01*
X4570063Y-2764484D02*
X4551015Y-2754960D01*
X4551015Y-2754960D02*
X4541492Y-2735912D01*
X4541492Y-2735912D02*
X4541492Y-2564484D01*
X4722444Y-2754960D02*
X4703396Y-2764484D01*
X4703396Y-2764484D02*
X4665301Y-2764484D01*
X4665301Y-2764484D02*
X4646253Y-2754960D01*
X4646253Y-2754960D02*
X4636730Y-2735912D01*
X4636730Y-2735912D02*
X4636730Y-2659722D01*
X4636730Y-2659722D02*
X4646253Y-2640674D01*
X4646253Y-2640674D02*
X4665301Y-2631150D01*
X4665301Y-2631150D02*
X4703396Y-2631150D01*
X4703396Y-2631150D02*
X4722444Y-2640674D01*
X4722444Y-2640674D02*
X4731968Y-2659722D01*
X4731968Y-2659722D02*
X4731968Y-2678770D01*
X4731968Y-2678770D02*
X4636730Y-2697817D01*
X4808158Y-2754960D02*
X4827206Y-2764484D01*
X4827206Y-2764484D02*
X4865301Y-2764484D01*
X4865301Y-2764484D02*
X4884349Y-2754960D01*
X4884349Y-2754960D02*
X4893873Y-2735912D01*
X4893873Y-2735912D02*
X4893873Y-2726389D01*
X4893873Y-2726389D02*
X4884349Y-2707341D01*
X4884349Y-2707341D02*
X4865301Y-2697817D01*
X4865301Y-2697817D02*
X4836730Y-2697817D01*
X4836730Y-2697817D02*
X4817682Y-2688293D01*
X4817682Y-2688293D02*
X4808158Y-2669246D01*
X4808158Y-2669246D02*
X4808158Y-2659722D01*
X4808158Y-2659722D02*
X4817682Y-2640674D01*
X4817682Y-2640674D02*
X4836730Y-2631150D01*
X4836730Y-2631150D02*
X4865301Y-2631150D01*
X4865301Y-2631150D02*
X4884349Y-2640674D01*
X4960539Y-2840674D02*
X4970063Y-2831150D01*
X4970063Y-2831150D02*
X4989111Y-2802579D01*
X4989111Y-2802579D02*
X4998634Y-2783531D01*
X4998634Y-2783531D02*
X5008158Y-2754960D01*
X5008158Y-2754960D02*
X5017682Y-2707341D01*
X5017682Y-2707341D02*
X5017682Y-2669246D01*
X5017682Y-2669246D02*
X5008158Y-2621627D01*
X5008158Y-2621627D02*
X4998634Y-2593055D01*
X4998634Y-2593055D02*
X4989111Y-2574008D01*
X4989111Y-2574008D02*
X4970063Y-2545436D01*
X4970063Y-2545436D02*
X4960539Y-2535912D01*
X-34289Y-3007711D02*
X-34289Y-2866289D01*
X-175711Y-2866289D01*
X-175711Y-3007711D01*
X-34289Y-3007711D01*
X236729Y-2828484D02*
X360539Y-2828484D01*
X360539Y-2828484D02*
X293872Y-2904674D01*
X293872Y-2904674D02*
X322444Y-2904674D01*
X322444Y-2904674D02*
X341491Y-2914198D01*
X341491Y-2914198D02*
X351015Y-2923722D01*
X351015Y-2923722D02*
X360539Y-2942769D01*
X360539Y-2942769D02*
X360539Y-2990388D01*
X360539Y-2990388D02*
X351015Y-3009436D01*
X351015Y-3009436D02*
X341491Y-3018960D01*
X341491Y-3018960D02*
X322444Y-3028484D01*
X322444Y-3028484D02*
X265301Y-3028484D01*
X265301Y-3028484D02*
X246253Y-3018960D01*
X246253Y-3018960D02*
X236729Y-3009436D01*
X446253Y-3009436D02*
X455777Y-3018960D01*
X455777Y-3018960D02*
X446253Y-3028484D01*
X446253Y-3028484D02*
X436729Y-3018960D01*
X436729Y-3018960D02*
X446253Y-3009436D01*
X446253Y-3009436D02*
X446253Y-3028484D01*
X531967Y-2847531D02*
X541491Y-2838008D01*
X541491Y-2838008D02*
X560539Y-2828484D01*
X560539Y-2828484D02*
X608158Y-2828484D01*
X608158Y-2828484D02*
X627205Y-2838008D01*
X627205Y-2838008D02*
X636729Y-2847531D01*
X636729Y-2847531D02*
X646253Y-2866579D01*
X646253Y-2866579D02*
X646253Y-2885627D01*
X646253Y-2885627D02*
X636729Y-2914198D01*
X636729Y-2914198D02*
X522443Y-3028484D01*
X522443Y-3028484D02*
X646253Y-3028484D01*
X770062Y-2828484D02*
X789110Y-2828484D01*
X789110Y-2828484D02*
X808158Y-2838008D01*
X808158Y-2838008D02*
X817682Y-2847531D01*
X817682Y-2847531D02*
X827205Y-2866579D01*
X827205Y-2866579D02*
X836729Y-2904674D01*
X836729Y-2904674D02*
X836729Y-2952293D01*
X836729Y-2952293D02*
X827205Y-2990388D01*
X827205Y-2990388D02*
X817682Y-3009436D01*
X817682Y-3009436D02*
X808158Y-3018960D01*
X808158Y-3018960D02*
X789110Y-3028484D01*
X789110Y-3028484D02*
X770062Y-3028484D01*
X770062Y-3028484D02*
X751015Y-3018960D01*
X751015Y-3018960D02*
X741491Y-3009436D01*
X741491Y-3009436D02*
X731967Y-2990388D01*
X731967Y-2990388D02*
X722443Y-2952293D01*
X722443Y-2952293D02*
X722443Y-2904674D01*
X722443Y-2904674D02*
X731967Y-2866579D01*
X731967Y-2866579D02*
X741491Y-2847531D01*
X741491Y-2847531D02*
X751015Y-2838008D01*
X751015Y-2838008D02*
X770062Y-2828484D01*
X960539Y-2828484D02*
X979586Y-2828484D01*
X979586Y-2828484D02*
X998634Y-2838008D01*
X998634Y-2838008D02*
X1008158Y-2847531D01*
X1008158Y-2847531D02*
X1017682Y-2866579D01*
X1017682Y-2866579D02*
X1027205Y-2904674D01*
X1027205Y-2904674D02*
X1027205Y-2952293D01*
X1027205Y-2952293D02*
X1017682Y-2990388D01*
X1017682Y-2990388D02*
X1008158Y-3009436D01*
X1008158Y-3009436D02*
X998634Y-3018960D01*
X998634Y-3018960D02*
X979586Y-3028484D01*
X979586Y-3028484D02*
X960539Y-3028484D01*
X960539Y-3028484D02*
X941491Y-3018960D01*
X941491Y-3018960D02*
X931967Y-3009436D01*
X931967Y-3009436D02*
X922443Y-2990388D01*
X922443Y-2990388D02*
X912920Y-2952293D01*
X912920Y-2952293D02*
X912920Y-2904674D01*
X912920Y-2904674D02*
X922443Y-2866579D01*
X922443Y-2866579D02*
X931967Y-2847531D01*
X931967Y-2847531D02*
X941491Y-2838008D01*
X941491Y-2838008D02*
X960539Y-2828484D01*
X1112920Y-3028484D02*
X1112920Y-2895150D01*
X1112920Y-2914198D02*
X1122444Y-2904674D01*
X1122444Y-2904674D02*
X1141491Y-2895150D01*
X1141491Y-2895150D02*
X1170063Y-2895150D01*
X1170063Y-2895150D02*
X1189110Y-2904674D01*
X1189110Y-2904674D02*
X1198634Y-2923722D01*
X1198634Y-2923722D02*
X1198634Y-3028484D01*
X1198634Y-2923722D02*
X1208158Y-2904674D01*
X1208158Y-2904674D02*
X1227205Y-2895150D01*
X1227205Y-2895150D02*
X1255777Y-2895150D01*
X1255777Y-2895150D02*
X1274825Y-2904674D01*
X1274825Y-2904674D02*
X1284348Y-2923722D01*
X1284348Y-2923722D02*
X1284348Y-3028484D01*
X1379586Y-3028484D02*
X1379586Y-2895150D01*
X1379586Y-2914198D02*
X1389110Y-2904674D01*
X1389110Y-2904674D02*
X1408158Y-2895150D01*
X1408158Y-2895150D02*
X1436729Y-2895150D01*
X1436729Y-2895150D02*
X1455777Y-2904674D01*
X1455777Y-2904674D02*
X1465301Y-2923722D01*
X1465301Y-2923722D02*
X1465301Y-3028484D01*
X1465301Y-2923722D02*
X1474824Y-2904674D01*
X1474824Y-2904674D02*
X1493872Y-2895150D01*
X1493872Y-2895150D02*
X1522443Y-2895150D01*
X1522443Y-2895150D02*
X1541491Y-2904674D01*
X1541491Y-2904674D02*
X1551015Y-2923722D01*
X1551015Y-2923722D02*
X1551015Y-3028484D01*
X1941491Y-2818960D02*
X1770063Y-3076103D01*
X2198634Y-2828484D02*
X2217682Y-2828484D01*
X2217682Y-2828484D02*
X2236729Y-2838008D01*
X2236729Y-2838008D02*
X2246253Y-2847531D01*
X2246253Y-2847531D02*
X2255777Y-2866579D01*
X2255777Y-2866579D02*
X2265301Y-2904674D01*
X2265301Y-2904674D02*
X2265301Y-2952293D01*
X2265301Y-2952293D02*
X2255777Y-2990388D01*
X2255777Y-2990388D02*
X2246253Y-3009436D01*
X2246253Y-3009436D02*
X2236729Y-3018960D01*
X2236729Y-3018960D02*
X2217682Y-3028484D01*
X2217682Y-3028484D02*
X2198634Y-3028484D01*
X2198634Y-3028484D02*
X2179587Y-3018960D01*
X2179587Y-3018960D02*
X2170063Y-3009436D01*
X2170063Y-3009436D02*
X2160539Y-2990388D01*
X2160539Y-2990388D02*
X2151015Y-2952293D01*
X2151015Y-2952293D02*
X2151015Y-2904674D01*
X2151015Y-2904674D02*
X2160539Y-2866579D01*
X2160539Y-2866579D02*
X2170063Y-2847531D01*
X2170063Y-2847531D02*
X2179587Y-2838008D01*
X2179587Y-2838008D02*
X2198634Y-2828484D01*
X2351015Y-3009436D02*
X2360539Y-3018960D01*
X2360539Y-3018960D02*
X2351015Y-3028484D01*
X2351015Y-3028484D02*
X2341491Y-3018960D01*
X2341491Y-3018960D02*
X2351015Y-3009436D01*
X2351015Y-3009436D02*
X2351015Y-3028484D01*
X2551015Y-3028484D02*
X2436729Y-3028484D01*
X2493872Y-3028484D02*
X2493872Y-2828484D01*
X2493872Y-2828484D02*
X2474825Y-2857055D01*
X2474825Y-2857055D02*
X2455777Y-2876103D01*
X2455777Y-2876103D02*
X2436729Y-2885627D01*
X2627206Y-2847531D02*
X2636729Y-2838008D01*
X2636729Y-2838008D02*
X2655777Y-2828484D01*
X2655777Y-2828484D02*
X2703396Y-2828484D01*
X2703396Y-2828484D02*
X2722444Y-2838008D01*
X2722444Y-2838008D02*
X2731968Y-2847531D01*
X2731968Y-2847531D02*
X2741491Y-2866579D01*
X2741491Y-2866579D02*
X2741491Y-2885627D01*
X2741491Y-2885627D02*
X2731968Y-2914198D01*
X2731968Y-2914198D02*
X2617682Y-3028484D01*
X2617682Y-3028484D02*
X2741491Y-3028484D01*
X2912920Y-2828484D02*
X2874825Y-2828484D01*
X2874825Y-2828484D02*
X2855777Y-2838008D01*
X2855777Y-2838008D02*
X2846253Y-2847531D01*
X2846253Y-2847531D02*
X2827206Y-2876103D01*
X2827206Y-2876103D02*
X2817682Y-2914198D01*
X2817682Y-2914198D02*
X2817682Y-2990388D01*
X2817682Y-2990388D02*
X2827206Y-3009436D01*
X2827206Y-3009436D02*
X2836729Y-3018960D01*
X2836729Y-3018960D02*
X2855777Y-3028484D01*
X2855777Y-3028484D02*
X2893872Y-3028484D01*
X2893872Y-3028484D02*
X2912920Y-3018960D01*
X2912920Y-3018960D02*
X2922444Y-3009436D01*
X2922444Y-3009436D02*
X2931967Y-2990388D01*
X2931967Y-2990388D02*
X2931967Y-2942769D01*
X2931967Y-2942769D02*
X2922444Y-2923722D01*
X2922444Y-2923722D02*
X2912920Y-2914198D01*
X2912920Y-2914198D02*
X2893872Y-2904674D01*
X2893872Y-2904674D02*
X2855777Y-2904674D01*
X2855777Y-2904674D02*
X2836729Y-2914198D01*
X2836729Y-2914198D02*
X2827206Y-2923722D01*
X2827206Y-2923722D02*
X2817682Y-2942769D01*
X3055777Y-2828484D02*
X3074825Y-2828484D01*
X3074825Y-2828484D02*
X3093872Y-2838008D01*
X3093872Y-2838008D02*
X3103396Y-2847531D01*
X3103396Y-2847531D02*
X3112920Y-2866579D01*
X3112920Y-2866579D02*
X3122444Y-2904674D01*
X3122444Y-2904674D02*
X3122444Y-2952293D01*
X3122444Y-2952293D02*
X3112920Y-2990388D01*
X3112920Y-2990388D02*
X3103396Y-3009436D01*
X3103396Y-3009436D02*
X3093872Y-3018960D01*
X3093872Y-3018960D02*
X3074825Y-3028484D01*
X3074825Y-3028484D02*
X3055777Y-3028484D01*
X3055777Y-3028484D02*
X3036729Y-3018960D01*
X3036729Y-3018960D02*
X3027206Y-3009436D01*
X3027206Y-3009436D02*
X3017682Y-2990388D01*
X3017682Y-2990388D02*
X3008158Y-2952293D01*
X3008158Y-2952293D02*
X3008158Y-2904674D01*
X3008158Y-2904674D02*
X3017682Y-2866579D01*
X3017682Y-2866579D02*
X3027206Y-2847531D01*
X3027206Y-2847531D02*
X3036729Y-2838008D01*
X3036729Y-2838008D02*
X3055777Y-2828484D01*
X3198634Y-2828484D02*
X3198634Y-2866579D01*
X3274825Y-2828484D02*
X3274825Y-2866579D01*
X3570063Y-3104674D02*
X3560539Y-3095150D01*
X3560539Y-3095150D02*
X3541491Y-3066579D01*
X3541491Y-3066579D02*
X3531968Y-3047531D01*
X3531968Y-3047531D02*
X3522444Y-3018960D01*
X3522444Y-3018960D02*
X3512920Y-2971341D01*
X3512920Y-2971341D02*
X3512920Y-2933246D01*
X3512920Y-2933246D02*
X3522444Y-2885627D01*
X3522444Y-2885627D02*
X3531968Y-2857055D01*
X3531968Y-2857055D02*
X3541491Y-2838008D01*
X3541491Y-2838008D02*
X3560539Y-2809436D01*
X3560539Y-2809436D02*
X3570063Y-2799912D01*
X3636729Y-2847531D02*
X3646253Y-2838008D01*
X3646253Y-2838008D02*
X3665301Y-2828484D01*
X3665301Y-2828484D02*
X3712920Y-2828484D01*
X3712920Y-2828484D02*
X3731968Y-2838008D01*
X3731968Y-2838008D02*
X3741491Y-2847531D01*
X3741491Y-2847531D02*
X3751015Y-2866579D01*
X3751015Y-2866579D02*
X3751015Y-2885627D01*
X3751015Y-2885627D02*
X3741491Y-2914198D01*
X3741491Y-2914198D02*
X3627206Y-3028484D01*
X3627206Y-3028484D02*
X3751015Y-3028484D01*
X3989110Y-3028484D02*
X3989110Y-2828484D01*
X4074825Y-3028484D02*
X4074825Y-2923722D01*
X4074825Y-2923722D02*
X4065301Y-2904674D01*
X4065301Y-2904674D02*
X4046253Y-2895150D01*
X4046253Y-2895150D02*
X4017682Y-2895150D01*
X4017682Y-2895150D02*
X3998634Y-2904674D01*
X3998634Y-2904674D02*
X3989110Y-2914198D01*
X4198634Y-3028484D02*
X4179587Y-3018960D01*
X4179587Y-3018960D02*
X4170063Y-3009436D01*
X4170063Y-3009436D02*
X4160539Y-2990388D01*
X4160539Y-2990388D02*
X4160539Y-2933246D01*
X4160539Y-2933246D02*
X4170063Y-2914198D01*
X4170063Y-2914198D02*
X4179587Y-2904674D01*
X4179587Y-2904674D02*
X4198634Y-2895150D01*
X4198634Y-2895150D02*
X4227206Y-2895150D01*
X4227206Y-2895150D02*
X4246253Y-2904674D01*
X4246253Y-2904674D02*
X4255777Y-2914198D01*
X4255777Y-2914198D02*
X4265301Y-2933246D01*
X4265301Y-2933246D02*
X4265301Y-2990388D01*
X4265301Y-2990388D02*
X4255777Y-3009436D01*
X4255777Y-3009436D02*
X4246253Y-3018960D01*
X4246253Y-3018960D02*
X4227206Y-3028484D01*
X4227206Y-3028484D02*
X4198634Y-3028484D01*
X4379587Y-3028484D02*
X4360539Y-3018960D01*
X4360539Y-3018960D02*
X4351015Y-2999912D01*
X4351015Y-2999912D02*
X4351015Y-2828484D01*
X4531968Y-3018960D02*
X4512920Y-3028484D01*
X4512920Y-3028484D02*
X4474825Y-3028484D01*
X4474825Y-3028484D02*
X4455777Y-3018960D01*
X4455777Y-3018960D02*
X4446253Y-2999912D01*
X4446253Y-2999912D02*
X4446253Y-2923722D01*
X4446253Y-2923722D02*
X4455777Y-2904674D01*
X4455777Y-2904674D02*
X4474825Y-2895150D01*
X4474825Y-2895150D02*
X4512920Y-2895150D01*
X4512920Y-2895150D02*
X4531968Y-2904674D01*
X4531968Y-2904674D02*
X4541492Y-2923722D01*
X4541492Y-2923722D02*
X4541492Y-2942769D01*
X4541492Y-2942769D02*
X4446253Y-2961817D01*
X4617682Y-3018960D02*
X4636730Y-3028484D01*
X4636730Y-3028484D02*
X4674825Y-3028484D01*
X4674825Y-3028484D02*
X4693873Y-3018960D01*
X4693873Y-3018960D02*
X4703396Y-2999912D01*
X4703396Y-2999912D02*
X4703396Y-2990388D01*
X4703396Y-2990388D02*
X4693873Y-2971341D01*
X4693873Y-2971341D02*
X4674825Y-2961817D01*
X4674825Y-2961817D02*
X4646253Y-2961817D01*
X4646253Y-2961817D02*
X4627206Y-2952293D01*
X4627206Y-2952293D02*
X4617682Y-2933246D01*
X4617682Y-2933246D02*
X4617682Y-2923722D01*
X4617682Y-2923722D02*
X4627206Y-2904674D01*
X4627206Y-2904674D02*
X4646253Y-2895150D01*
X4646253Y-2895150D02*
X4674825Y-2895150D01*
X4674825Y-2895150D02*
X4693873Y-2904674D01*
X4770063Y-3104674D02*
X4779587Y-3095150D01*
X4779587Y-3095150D02*
X4798634Y-3066579D01*
X4798634Y-3066579D02*
X4808158Y-3047531D01*
X4808158Y-3047531D02*
X4817682Y-3018960D01*
X4817682Y-3018960D02*
X4827206Y-2971341D01*
X4827206Y-2971341D02*
X4827206Y-2933246D01*
X4827206Y-2933246D02*
X4817682Y-2885627D01*
X4817682Y-2885627D02*
X4808158Y-2857055D01*
X4808158Y-2857055D02*
X4798634Y-2838008D01*
X4798634Y-2838008D02*
X4779587Y-2809436D01*
X4779587Y-2809436D02*
X4770063Y-2799912D01*
M02*
