%TF.GenerationSoftware,KiCad,Pcbnew,10.0.4*%
%TF.CreationDate,2026-07-06T14:46:15-04:00*%
%TF.ProjectId,gate-rail,67617465-2d72-4616-996c-2e6b69636164,rev?*%
%TF.SameCoordinates,Original*%
%TF.FileFunction,Copper,L1,Top*%
%TF.FilePolarity,Positive*%
%FSLAX46Y46*%
G04 Gerber Fmt 4.6, Leading zero omitted, Abs format (unit mm)*
G04 Created by KiCad (PCBNEW 10.0.4) date 2026-07-06 14:46:15*
%MOMM*%
%LPD*%
G01*
G04 APERTURE LIST*
G04 Aperture macros list*
%AMRoundRect*
0 Rectangle with rounded corners*
0 $1 Rounding radius*
0 $2 $3 $4 $5 $6 $7 $8 $9 X,Y pos of 4 corners*
0 Add a 4 corners polygon primitive as box body*
4,1,4,$2,$3,$4,$5,$6,$7,$8,$9,$2,$3,0*
0 Add four circle primitives for the rounded corners*
1,1,$1+$1,$2,$3*
1,1,$1+$1,$4,$5*
1,1,$1+$1,$6,$7*
1,1,$1+$1,$8,$9*
0 Add four rect primitives between the rounded corners*
20,1,$1+$1,$2,$3,$4,$5,0*
20,1,$1+$1,$4,$5,$6,$7,0*
20,1,$1+$1,$6,$7,$8,$9,0*
20,1,$1+$1,$8,$9,$2,$3,0*%
G04 Aperture macros list end*
%TA.AperFunction,ComponentPad*%
%ADD10R,1.800000X1.800000*%
%TD*%
%TA.AperFunction,ComponentPad*%
%ADD11C,1.800000*%
%TD*%
%TA.AperFunction,ComponentPad*%
%ADD12RoundRect,0.250000X-0.600000X0.600000X-0.600000X-0.600000X0.600000X-0.600000X0.600000X0.600000X0*%
%TD*%
%TA.AperFunction,ComponentPad*%
%ADD13C,1.700000*%
%TD*%
%TA.AperFunction,SMDPad,CuDef*%
%ADD14RoundRect,0.200000X-0.200000X-0.275000X0.200000X-0.275000X0.200000X0.275000X-0.200000X0.275000X0*%
%TD*%
%TA.AperFunction,ComponentPad*%
%ADD15C,6.400000*%
%TD*%
%TA.AperFunction,SMDPad,CuDef*%
%ADD16R,1.500000X1.500000*%
%TD*%
%TA.AperFunction,ViaPad*%
%ADD17C,0.600000*%
%TD*%
%TA.AperFunction,Conductor*%
%ADD18C,0.400000*%
%TD*%
%TA.AperFunction,Conductor*%
%ADD19C,0.500000*%
%TD*%
%TA.AperFunction,Conductor*%
%ADD20C,0.800000*%
%TD*%
%TA.AperFunction,Conductor*%
%ADD21C,0.300000*%
%TD*%
G04 APERTURE END LIST*
D10*
%TO.P,D5,1*%
%TO.N,GND*%
X130000000Y-10900000D03*
D11*
%TO.P,D5,2*%
%TO.N,LEDA5*%
X132540000Y-10900000D03*
%TD*%
D12*
%TO.P,J1,1*%
%TO.N,+5V*%
X210500000Y-6000000D03*
D13*
%TO.P,J1,2*%
%TO.N,GND*%
X210500000Y-8540000D03*
%TO.P,J1,3*%
%TO.N,SIG1*%
X207960000Y-6000000D03*
%TO.P,J1,4*%
%TO.N,SIG2*%
X207960000Y-8540000D03*
%TO.P,J1,5*%
%TO.N,SIG3*%
X205420000Y-6000000D03*
%TO.P,J1,6*%
%TO.N,SIG4*%
X205420000Y-8540000D03*
%TO.P,J1,7*%
%TO.N,SIG5*%
X202880000Y-6000000D03*
%TO.P,J1,8*%
%TO.N,SIG6*%
X202880000Y-8540000D03*
%TO.P,J1,9*%
%TO.N,SIG_SPARE*%
X200340000Y-6000000D03*
%TO.P,J1,10*%
%TO.N,GND*%
X200340000Y-8540000D03*
%TD*%
D10*
%TO.P,Q1,1*%
%TO.N,SIG1*%
X10000000Y-4800000D03*
D11*
%TO.P,Q1,2*%
%TO.N,GND*%
X12540000Y-4800000D03*
%TD*%
D10*
%TO.P,Q3,1*%
%TO.N,SIG3*%
X50000000Y-4800000D03*
D11*
%TO.P,Q3,2*%
%TO.N,GND*%
X52540000Y-4800000D03*
%TD*%
D10*
%TO.P,D4,1*%
%TO.N,GND*%
X75000000Y-10900000D03*
D11*
%TO.P,D4,2*%
%TO.N,LEDA4*%
X77540000Y-10900000D03*
%TD*%
D10*
%TO.P,D1,1*%
%TO.N,GND*%
X10000000Y-10900000D03*
D11*
%TO.P,D1,2*%
%TO.N,LEDA1*%
X12540000Y-10900000D03*
%TD*%
D10*
%TO.P,Q4,1*%
%TO.N,SIG4*%
X75000000Y-4800000D03*
D11*
%TO.P,Q4,2*%
%TO.N,GND*%
X77540000Y-4800000D03*
%TD*%
D14*
%TO.P,R2,1*%
%TO.N,+5V*%
X36175000Y-12600000D03*
%TO.P,R2,2*%
%TO.N,LEDA2*%
X37825000Y-12600000D03*
%TD*%
%TO.P,R3,1*%
%TO.N,+5V*%
X56175000Y-12600000D03*
%TO.P,R3,2*%
%TO.N,LEDA3*%
X57825000Y-12600000D03*
%TD*%
D10*
%TO.P,D6,1*%
%TO.N,GND*%
X190000000Y-10900000D03*
D11*
%TO.P,D6,2*%
%TO.N,LEDA6*%
X192540000Y-10900000D03*
%TD*%
D14*
%TO.P,R1,1*%
%TO.N,+5V*%
X16175000Y-12600000D03*
%TO.P,R1,2*%
%TO.N,LEDA1*%
X17825000Y-12600000D03*
%TD*%
%TO.P,R4,1*%
%TO.N,+5V*%
X81175000Y-12600000D03*
%TO.P,R4,2*%
%TO.N,LEDA4*%
X82825000Y-12600000D03*
%TD*%
D10*
%TO.P,D3,1*%
%TO.N,GND*%
X50000000Y-10900000D03*
D11*
%TO.P,D3,2*%
%TO.N,LEDA3*%
X52540000Y-10900000D03*
%TD*%
D15*
%TO.P,H1,1*%
%TO.N,N/C*%
X4500000Y-4000000D03*
%TD*%
D10*
%TO.P,D2,1*%
%TO.N,GND*%
X30000000Y-10900000D03*
D11*
%TO.P,D2,2*%
%TO.N,LEDA2*%
X32540000Y-10900000D03*
%TD*%
D10*
%TO.P,Q5,1*%
%TO.N,SIG5*%
X130000000Y-4800000D03*
D11*
%TO.P,Q5,2*%
%TO.N,GND*%
X132540000Y-4800000D03*
%TD*%
D10*
%TO.P,Q2,1*%
%TO.N,SIG2*%
X30000000Y-4800000D03*
D11*
%TO.P,Q2,2*%
%TO.N,GND*%
X32540000Y-4800000D03*
%TD*%
D14*
%TO.P,R6,1*%
%TO.N,+5V*%
X182175000Y-12600000D03*
%TO.P,R6,2*%
%TO.N,LEDA6*%
X183825000Y-12600000D03*
%TD*%
D16*
%TO.P,TP1,1*%
%TO.N,SIG_SPARE*%
X218000000Y-2500000D03*
%TD*%
D10*
%TO.P,Q6,1*%
%TO.N,SIG6*%
X190000000Y-4800000D03*
D11*
%TO.P,Q6,2*%
%TO.N,GND*%
X192540000Y-4800000D03*
%TD*%
D15*
%TO.P,H2,1*%
%TO.N,N/C*%
X220000000Y-11000000D03*
%TD*%
D14*
%TO.P,R5,1*%
%TO.N,+5V*%
X136175000Y-12600000D03*
%TO.P,R5,2*%
%TO.N,LEDA5*%
X137825000Y-12600000D03*
%TD*%
D17*
%TO.N,+5V*%
X212100000Y-10000000D03*
%TO.N,SIG_SPARE*%
X215400000Y-2500000D03*
%TD*%
%TO.N,LEDA1*%
D18*
X17825000Y-12600000D02*
X17825000Y-11400000D01*
X12540000Y-11400000D02*
X12540000Y-10900000D01*
X17825000Y-11400000D02*
X12540000Y-11400000D01*
%TO.N,LEDA2*%
X32540000Y-11400000D02*
X32540000Y-10900000D01*
X37825000Y-11400000D02*
X32540000Y-11400000D01*
X37825000Y-12600000D02*
X37825000Y-11400000D01*
%TO.N,LEDA3*%
X57825000Y-12600000D02*
X57825000Y-11400000D01*
X57825000Y-11400000D02*
X52540000Y-11400000D01*
X52540000Y-11400000D02*
X52540000Y-10900000D01*
%TO.N,LEDA4*%
X82825000Y-11400000D02*
X77540000Y-11400000D01*
X82825000Y-12600000D02*
X82825000Y-11400000D01*
X77540000Y-11400000D02*
X77540000Y-10900000D01*
%TO.N,LEDA5*%
X137825000Y-12600000D02*
X137825000Y-11400000D01*
X132539999Y-11400000D02*
X132539999Y-10900000D01*
X137825000Y-11400000D02*
X132539999Y-11400000D01*
%TO.N,LEDA6*%
X183825000Y-12900000D02*
X192540000Y-12900000D01*
X183825000Y-12600000D02*
X183825000Y-12900000D01*
X192540000Y-12900000D02*
X192540000Y-10900000D01*
%TO.N,+5V*%
D19*
X16175000Y-12600000D02*
X16175000Y-13700000D01*
X81175000Y-12600000D02*
X81175000Y-13700000D01*
D20*
X212100000Y-10000000D02*
X212100000Y-13700000D01*
D19*
X182175000Y-12600000D02*
X182175000Y-13700000D01*
X136175000Y-12600000D02*
X136175000Y-13700000D01*
X36175000Y-12600000D02*
X36175000Y-13700000D01*
X56175000Y-12600000D02*
X56175000Y-13700000D01*
D20*
X16175000Y-13700000D02*
X212100000Y-13700000D01*
%TO.N,SIG1*%
D21*
X10000000Y-4800000D02*
X10000000Y-1000000D01*
X10000000Y-1000000D02*
X207960000Y-1000000D01*
X207960000Y-1000000D02*
X207960000Y-6000000D01*
%TO.N,SIG3*%
X50000000Y-4800000D02*
X50000000Y-1500000D01*
X50000000Y-1500000D02*
X205420000Y-1500000D01*
X205420000Y-1500000D02*
X205420000Y-6000000D01*
%TO.N,SIG5*%
X130000000Y-4800000D02*
X130000000Y-2000000D01*
X130000000Y-2000000D02*
X202880000Y-2000000D01*
X202880000Y-2000000D02*
X202880000Y-6000000D01*
%TO.N,SIG_SPARE*%
X215400000Y-2500000D02*
X218000000Y-2500000D01*
%TD*%
M02*
