%TF.GenerationSoftware,KiCad,Pcbnew,10.0.4*%
%TF.CreationDate,2026-07-06T14:09:56-04:00*%
%TF.ProjectId,gate-rail,67617465-2d72-4616-996c-2e6b69636164,rev?*%
%TF.SameCoordinates,Original*%
%TF.FileFunction,Copper,L2,Bot*%
%TF.FilePolarity,Positive*%
%FSLAX46Y46*%
G04 Gerber Fmt 4.6, Leading zero omitted, Abs format (unit mm)*
G04 Created by KiCad (PCBNEW 10.0.4) date 2026-07-06 14:09:56*
%MOMM*%
%LPD*%
G01*
G04 APERTURE LIST*
G04 Aperture macros list*
%AMRoundRect*
0 Rectangle with rounded corners*
0 $1 Rounding radius*
0 $2 $3 $4 $5 $6 $7 $8 $9 X,Y pos of 4 corners*
0 Add a 4 corners polygon primitive as box body*
4,1,4,$2,$3,$4,$5,$6,$7,$8,$9,$2,$3,0*
0 Add four circle primitives for the rounded corners*
1,1,$1+$1,$2,$3*
1,1,$1+$1,$4,$5*
1,1,$1+$1,$6,$7*
1,1,$1+$1,$8,$9*
0 Add four rect primitives between the rounded corners*
20,1,$1+$1,$2,$3,$4,$5,0*
20,1,$1+$1,$4,$5,$6,$7,0*
20,1,$1+$1,$6,$7,$8,$9,0*
20,1,$1+$1,$8,$9,$2,$3,0*%
G04 Aperture macros list end*
%TA.AperFunction,ComponentPad*%
%ADD10R,1.800000X1.800000*%
%TD*%
%TA.AperFunction,ComponentPad*%
%ADD11C,1.800000*%
%TD*%
%TA.AperFunction,ComponentPad*%
%ADD12C,6.400000*%
%TD*%
%TA.AperFunction,ComponentPad*%
%ADD13RoundRect,0.250000X-0.600000X0.600000X-0.600000X-0.600000X0.600000X-0.600000X0.600000X0.600000X0*%
%TD*%
%TA.AperFunction,ComponentPad*%
%ADD14C,1.700000*%
%TD*%
%TA.AperFunction,ViaPad*%
%ADD15C,0.600000*%
%TD*%
%TA.AperFunction,Conductor*%
%ADD16C,0.800000*%
%TD*%
%TA.AperFunction,Conductor*%
%ADD17C,0.300000*%
%TD*%
G04 APERTURE END LIST*
D10*
%TO.P,D1,1*%
%TO.N,GND*%
X10000000Y-10900000D03*
D11*
%TO.P,D1,2*%
%TO.N,LEDA1*%
X12540000Y-10900000D03*
%TD*%
D12*
%TO.P,H1,1*%
%TO.N,N/C*%
X4500000Y-4000000D03*
%TD*%
D10*
%TO.P,D6,1*%
%TO.N,GND*%
X190000000Y-10900000D03*
D11*
%TO.P,D6,2*%
%TO.N,LEDA6*%
X192540000Y-10900000D03*
%TD*%
D10*
%TO.P,Q3,1*%
%TO.N,SIG3*%
X50000000Y-4800000D03*
D11*
%TO.P,Q3,2*%
%TO.N,GND*%
X52540000Y-4800000D03*
%TD*%
D10*
%TO.P,D3,1*%
%TO.N,GND*%
X50000000Y-10900000D03*
D11*
%TO.P,D3,2*%
%TO.N,LEDA3*%
X52540000Y-10900000D03*
%TD*%
D10*
%TO.P,D5,1*%
%TO.N,GND*%
X130000000Y-10900000D03*
D11*
%TO.P,D5,2*%
%TO.N,LEDA5*%
X132540000Y-10900000D03*
%TD*%
D10*
%TO.P,D4,1*%
%TO.N,GND*%
X75000000Y-10900000D03*
D11*
%TO.P,D4,2*%
%TO.N,LEDA4*%
X77540000Y-10900000D03*
%TD*%
D12*
%TO.P,H2,1*%
%TO.N,N/C*%
X220000000Y-11000000D03*
%TD*%
D13*
%TO.P,J1,1*%
%TO.N,+5V*%
X210500000Y-6000000D03*
D14*
%TO.P,J1,2*%
%TO.N,GND*%
X210500000Y-8540000D03*
%TO.P,J1,3*%
%TO.N,SIG1*%
X207960000Y-6000000D03*
%TO.P,J1,4*%
%TO.N,SIG2*%
X207960000Y-8540000D03*
%TO.P,J1,5*%
%TO.N,SIG3*%
X205420000Y-6000000D03*
%TO.P,J1,6*%
%TO.N,SIG4*%
X205420000Y-8540000D03*
%TO.P,J1,7*%
%TO.N,SIG5*%
X202880000Y-6000000D03*
%TO.P,J1,8*%
%TO.N,SIG6*%
X202880000Y-8540000D03*
%TO.P,J1,9*%
%TO.N,SIG_SPARE*%
X200340000Y-6000000D03*
%TO.P,J1,10*%
%TO.N,GND*%
X200340000Y-8540000D03*
%TD*%
D10*
%TO.P,Q6,1*%
%TO.N,SIG6*%
X190000000Y-4800000D03*
D11*
%TO.P,Q6,2*%
%TO.N,GND*%
X192540000Y-4800000D03*
%TD*%
D10*
%TO.P,D2,1*%
%TO.N,GND*%
X30000000Y-10900000D03*
D11*
%TO.P,D2,2*%
%TO.N,LEDA2*%
X32540000Y-10900000D03*
%TD*%
D10*
%TO.P,Q4,1*%
%TO.N,SIG4*%
X75000000Y-4800000D03*
D11*
%TO.P,Q4,2*%
%TO.N,GND*%
X77540000Y-4800000D03*
%TD*%
D10*
%TO.P,Q2,1*%
%TO.N,SIG2*%
X30000000Y-4800000D03*
D11*
%TO.P,Q2,2*%
%TO.N,GND*%
X32540000Y-4800000D03*
%TD*%
D10*
%TO.P,Q5,1*%
%TO.N,SIG5*%
X130000000Y-4800000D03*
D11*
%TO.P,Q5,2*%
%TO.N,GND*%
X132540000Y-4800000D03*
%TD*%
D10*
%TO.P,Q1,1*%
%TO.N,SIG1*%
X10000000Y-4800000D03*
D11*
%TO.P,Q1,2*%
%TO.N,GND*%
X12540000Y-4800000D03*
%TD*%
D15*
%TO.N,+5V*%
X212100000Y-10000000D03*
%TO.N,SIG_SPARE*%
X215400000Y-2500000D03*
%TD*%
%TO.N,+5V*%
D16*
X210500000Y-6000000D02*
X212100000Y-6000000D01*
X212100000Y-6000000D02*
X212100000Y-10000000D01*
%TO.N,SIG2*%
D17*
X209230000Y-1500000D02*
X209230000Y-8540000D01*
X209230000Y-8540000D02*
X207960000Y-8540000D01*
X30000000Y-4800000D02*
X30000000Y-1500000D01*
X30000000Y-1500000D02*
X209230000Y-1500000D01*
%TO.N,SIG4*%
X75000000Y-2500000D02*
X206690000Y-2500000D01*
X206690000Y-8540000D02*
X205420000Y-8540000D01*
X206690000Y-2500000D02*
X206690000Y-8540000D01*
X75000000Y-4800000D02*
X75000000Y-2500000D01*
%TO.N,SIG6*%
X190000000Y-4800000D02*
X190000000Y-3500000D01*
X190000000Y-3500000D02*
X204150000Y-3500000D01*
X204150000Y-3500000D02*
X204150000Y-8540000D01*
X204150000Y-8540000D02*
X202880000Y-8540000D01*
%TO.N,SIG_SPARE*%
X200340000Y-6000000D02*
X201610000Y-6000000D01*
X215400000Y-13000000D02*
X215400000Y-2500000D01*
X201610000Y-13000000D02*
X215400000Y-13000000D01*
X201610000Y-6000000D02*
X201610000Y-13000000D01*
%TD*%
%TA.AperFunction,Conductor*%
%TO.N,GND*%
G36*
X223343039Y-619685D02*
G01*
X223388794Y-672489D01*
X223400000Y-724000D01*
X223400000Y-9018961D01*
X223380315Y-9086000D01*
X223327511Y-9131755D01*
X223258353Y-9141699D01*
X223194797Y-9112674D01*
X223172898Y-9087852D01*
X222975859Y-8792964D01*
X222975854Y-8792956D01*
X222745197Y-8511899D01*
X222745196Y-8511898D01*
X222745192Y-8511893D01*
X222488106Y-8254807D01*
X222207049Y-8024150D01*
X222207048Y-8024149D01*
X222207044Y-8024146D01*
X221904732Y-7822147D01*
X221904727Y-7822144D01*
X221904720Y-7822140D01*
X221584083Y-7650756D01*
X221584078Y-7650754D01*
X221248165Y-7511614D01*
X220900223Y-7406067D01*
X220900212Y-7406064D01*
X220543630Y-7335137D01*
X220271111Y-7308296D01*
X220181794Y-7299500D01*
X219818206Y-7299500D01*
X219735679Y-7307628D01*
X219456369Y-7335137D01*
X219099787Y-7406064D01*
X219099776Y-7406067D01*
X218751834Y-7511614D01*
X218415921Y-7650754D01*
X218415916Y-7650756D01*
X218095279Y-7822140D01*
X218095261Y-7822151D01*
X217792964Y-8024140D01*
X217792950Y-8024150D01*
X217511893Y-8254807D01*
X217254807Y-8511893D01*
X217024150Y-8792950D01*
X217024140Y-8792964D01*
X216822151Y-9095261D01*
X216822140Y-9095279D01*
X216650756Y-9415916D01*
X216650754Y-9415921D01*
X216511614Y-9751834D01*
X216406067Y-10099776D01*
X216406064Y-10099787D01*
X216335137Y-10456369D01*
X216299500Y-10818209D01*
X216299500Y-11181790D01*
X216335137Y-11543630D01*
X216406064Y-11900212D01*
X216406067Y-11900223D01*
X216511614Y-12248165D01*
X216650754Y-12584078D01*
X216650756Y-12584083D01*
X216822140Y-12904720D01*
X216822151Y-12904738D01*
X217024140Y-13207035D01*
X217024150Y-13207049D01*
X217254807Y-13488106D01*
X217511893Y-13745192D01*
X217511898Y-13745196D01*
X217511899Y-13745197D01*
X217792956Y-13975854D01*
X218087853Y-14172898D01*
X218132658Y-14226510D01*
X218141365Y-14295835D01*
X218111211Y-14358862D01*
X218051768Y-14395582D01*
X218018962Y-14400000D01*
X724000Y-14400000D01*
X656961Y-14380315D01*
X611206Y-14327511D01*
X600000Y-14276000D01*
X600000Y-10789778D01*
X11139500Y-10789778D01*
X11139500Y-11010221D01*
X11173985Y-11227952D01*
X11242103Y-11437603D01*
X11242104Y-11437606D01*
X11342187Y-11634025D01*
X11471752Y-11812358D01*
X11471756Y-11812363D01*
X11627636Y-11968243D01*
X11627641Y-11968247D01*
X11783192Y-12081260D01*
X11805978Y-12097815D01*
X11934375Y-12163237D01*
X12002393Y-12197895D01*
X12002396Y-12197896D01*
X12087355Y-12225500D01*
X12212049Y-12266015D01*
X12429778Y-12300500D01*
X12429779Y-12300500D01*
X12650221Y-12300500D01*
X12650222Y-12300500D01*
X12867951Y-12266015D01*
X13077606Y-12197895D01*
X13274022Y-12097815D01*
X13452365Y-11968242D01*
X13608242Y-11812365D01*
X13737815Y-11634022D01*
X13837895Y-11437606D01*
X13906015Y-11227951D01*
X13940500Y-11010222D01*
X13940500Y-10789778D01*
X31139500Y-10789778D01*
X31139500Y-11010221D01*
X31173985Y-11227952D01*
X31242103Y-11437603D01*
X31242104Y-11437606D01*
X31342187Y-11634025D01*
X31471752Y-11812358D01*
X31471756Y-11812363D01*
X31627636Y-11968243D01*
X31627641Y-11968247D01*
X31783192Y-12081260D01*
X31805978Y-12097815D01*
X31934375Y-12163237D01*
X32002393Y-12197895D01*
X32002396Y-12197896D01*
X32087355Y-12225500D01*
X32212049Y-12266015D01*
X32429778Y-12300500D01*
X32429779Y-12300500D01*
X32650221Y-12300500D01*
X32650222Y-12300500D01*
X32867951Y-12266015D01*
X33077606Y-12197895D01*
X33274022Y-12097815D01*
X33452365Y-11968242D01*
X33608242Y-11812365D01*
X33737815Y-11634022D01*
X33837895Y-11437606D01*
X33906015Y-11227951D01*
X33940500Y-11010222D01*
X33940500Y-10789778D01*
X51139500Y-10789778D01*
X51139500Y-11010221D01*
X51173985Y-11227952D01*
X51242103Y-11437603D01*
X51242104Y-11437606D01*
X51342187Y-11634025D01*
X51471752Y-11812358D01*
X51471756Y-11812363D01*
X51627636Y-11968243D01*
X51627641Y-11968247D01*
X51783192Y-12081260D01*
X51805978Y-12097815D01*
X51934375Y-12163237D01*
X52002393Y-12197895D01*
X52002396Y-12197896D01*
X52087355Y-12225500D01*
X52212049Y-12266015D01*
X52429778Y-12300500D01*
X52429779Y-12300500D01*
X52650221Y-12300500D01*
X52650222Y-12300500D01*
X52867951Y-12266015D01*
X53077606Y-12197895D01*
X53274022Y-12097815D01*
X53452365Y-11968242D01*
X53608242Y-11812365D01*
X53737815Y-11634022D01*
X53837895Y-11437606D01*
X53906015Y-11227951D01*
X53940500Y-11010222D01*
X53940500Y-10789778D01*
X76139500Y-10789778D01*
X76139500Y-11010221D01*
X76173985Y-11227952D01*
X76242103Y-11437603D01*
X76242104Y-11437606D01*
X76342187Y-11634025D01*
X76471752Y-11812358D01*
X76471756Y-11812363D01*
X76627636Y-11968243D01*
X76627641Y-11968247D01*
X76783192Y-12081260D01*
X76805978Y-12097815D01*
X76934375Y-12163237D01*
X77002393Y-12197895D01*
X77002396Y-12197896D01*
X77087355Y-12225500D01*
X77212049Y-12266015D01*
X77429778Y-12300500D01*
X77429779Y-12300500D01*
X77650221Y-12300500D01*
X77650222Y-12300500D01*
X77867951Y-12266015D01*
X78077606Y-12197895D01*
X78274022Y-12097815D01*
X78452365Y-11968242D01*
X78608242Y-11812365D01*
X78737815Y-11634022D01*
X78837895Y-11437606D01*
X78906015Y-11227951D01*
X78940500Y-11010222D01*
X78940500Y-10789778D01*
X131139500Y-10789778D01*
X131139500Y-11010221D01*
X131173985Y-11227952D01*
X131242103Y-11437603D01*
X131242104Y-11437606D01*
X131342187Y-11634025D01*
X131471752Y-11812358D01*
X131471756Y-11812363D01*
X131627636Y-11968243D01*
X131627641Y-11968247D01*
X131783192Y-12081260D01*
X131805978Y-12097815D01*
X131934375Y-12163237D01*
X132002393Y-12197895D01*
X132002396Y-12197896D01*
X132087355Y-12225500D01*
X132212049Y-12266015D01*
X132429778Y-12300500D01*
X132429779Y-12300500D01*
X132650221Y-12300500D01*
X132650222Y-12300500D01*
X132867951Y-12266015D01*
X133077606Y-12197895D01*
X133274022Y-12097815D01*
X133452365Y-11968242D01*
X133608242Y-11812365D01*
X133737815Y-11634022D01*
X133837895Y-11437606D01*
X133906015Y-11227951D01*
X133940500Y-11010222D01*
X133940500Y-10789778D01*
X191139500Y-10789778D01*
X191139500Y-11010221D01*
X191173985Y-11227952D01*
X191242103Y-11437603D01*
X191242104Y-11437606D01*
X191342187Y-11634025D01*
X191471752Y-11812358D01*
X191471756Y-11812363D01*
X191627636Y-11968243D01*
X191627641Y-11968247D01*
X191783192Y-12081260D01*
X191805978Y-12097815D01*
X191934375Y-12163237D01*
X192002393Y-12197895D01*
X192002396Y-12197896D01*
X192087355Y-12225500D01*
X192212049Y-12266015D01*
X192429778Y-12300500D01*
X192429779Y-12300500D01*
X192650221Y-12300500D01*
X192650222Y-12300500D01*
X192867951Y-12266015D01*
X193077606Y-12197895D01*
X193274022Y-12097815D01*
X193452365Y-11968242D01*
X193608242Y-11812365D01*
X193737815Y-11634022D01*
X193837895Y-11437606D01*
X193906015Y-11227951D01*
X193940500Y-11010222D01*
X193940500Y-10789778D01*
X193906015Y-10572049D01*
X193837895Y-10362394D01*
X193837895Y-10362393D01*
X193787081Y-10262667D01*
X193737815Y-10165978D01*
X193681666Y-10088695D01*
X193608247Y-9987641D01*
X193608243Y-9987636D01*
X193452363Y-9831756D01*
X193452358Y-9831752D01*
X193274025Y-9702187D01*
X193274024Y-9702186D01*
X193274022Y-9702185D01*
X193211096Y-9670122D01*
X193077606Y-9602104D01*
X193077603Y-9602103D01*
X192867952Y-9533985D01*
X192759086Y-9516742D01*
X192650222Y-9499500D01*
X192429778Y-9499500D01*
X192357201Y-9510995D01*
X192212047Y-9533985D01*
X192002396Y-9602103D01*
X192002393Y-9602104D01*
X191805974Y-9702187D01*
X191627641Y-9831752D01*
X191627636Y-9831756D01*
X191471756Y-9987636D01*
X191471752Y-9987641D01*
X191342187Y-10165974D01*
X191242104Y-10362393D01*
X191242103Y-10362396D01*
X191173985Y-10572047D01*
X191139500Y-10789778D01*
X133940500Y-10789778D01*
X133906015Y-10572049D01*
X133837895Y-10362394D01*
X133837895Y-10362393D01*
X133787081Y-10262667D01*
X133737815Y-10165978D01*
X133681666Y-10088695D01*
X133608247Y-9987641D01*
X133608243Y-9987636D01*
X133452363Y-9831756D01*
X133452358Y-9831752D01*
X133274025Y-9702187D01*
X133274024Y-9702186D01*
X133274022Y-9702185D01*
X133211096Y-9670122D01*
X133077606Y-9602104D01*
X133077603Y-9602103D01*
X132867952Y-9533985D01*
X132759086Y-9516742D01*
X132650222Y-9499500D01*
X132429778Y-9499500D01*
X132357201Y-9510995D01*
X132212047Y-9533985D01*
X132002396Y-9602103D01*
X132002393Y-9602104D01*
X131805974Y-9702187D01*
X131627641Y-9831752D01*
X131627636Y-9831756D01*
X131471756Y-9987636D01*
X131471752Y-9987641D01*
X131342187Y-10165974D01*
X131242104Y-10362393D01*
X131242103Y-10362396D01*
X131173985Y-10572047D01*
X131139500Y-10789778D01*
X78940500Y-10789778D01*
X78906015Y-10572049D01*
X78837895Y-10362394D01*
X78837895Y-10362393D01*
X78787081Y-10262667D01*
X78737815Y-10165978D01*
X78681666Y-10088695D01*
X78608247Y-9987641D01*
X78608243Y-9987636D01*
X78452363Y-9831756D01*
X78452358Y-9831752D01*
X78274025Y-9702187D01*
X78274024Y-9702186D01*
X78274022Y-9702185D01*
X78211096Y-9670122D01*
X78077606Y-9602104D01*
X78077603Y-9602103D01*
X77867952Y-9533985D01*
X77759086Y-9516742D01*
X77650222Y-9499500D01*
X77429778Y-9499500D01*
X77357201Y-9510995D01*
X77212047Y-9533985D01*
X77002396Y-9602103D01*
X77002393Y-9602104D01*
X76805974Y-9702187D01*
X76627641Y-9831752D01*
X76627636Y-9831756D01*
X76471756Y-9987636D01*
X76471752Y-9987641D01*
X76342187Y-10165974D01*
X76242104Y-10362393D01*
X76242103Y-10362396D01*
X76173985Y-10572047D01*
X76139500Y-10789778D01*
X53940500Y-10789778D01*
X53906015Y-10572049D01*
X53837895Y-10362394D01*
X53837895Y-10362393D01*
X53787081Y-10262667D01*
X53737815Y-10165978D01*
X53681666Y-10088695D01*
X53608247Y-9987641D01*
X53608243Y-9987636D01*
X53452363Y-9831756D01*
X53452358Y-9831752D01*
X53274025Y-9702187D01*
X53274024Y-9702186D01*
X53274022Y-9702185D01*
X53211096Y-9670122D01*
X53077606Y-9602104D01*
X53077603Y-9602103D01*
X52867952Y-9533985D01*
X52759086Y-9516742D01*
X52650222Y-9499500D01*
X52429778Y-9499500D01*
X52357201Y-9510995D01*
X52212047Y-9533985D01*
X52002396Y-9602103D01*
X52002393Y-9602104D01*
X51805974Y-9702187D01*
X51627641Y-9831752D01*
X51627636Y-9831756D01*
X51471756Y-9987636D01*
X51471752Y-9987641D01*
X51342187Y-10165974D01*
X51242104Y-10362393D01*
X51242103Y-10362396D01*
X51173985Y-10572047D01*
X51139500Y-10789778D01*
X33940500Y-10789778D01*
X33906015Y-10572049D01*
X33837895Y-10362394D01*
X33837895Y-10362393D01*
X33787081Y-10262667D01*
X33737815Y-10165978D01*
X33681666Y-10088695D01*
X33608247Y-9987641D01*
X33608243Y-9987636D01*
X33452363Y-9831756D01*
X33452358Y-9831752D01*
X33274025Y-9702187D01*
X33274024Y-9702186D01*
X33274022Y-9702185D01*
X33211096Y-9670122D01*
X33077606Y-9602104D01*
X33077603Y-9602103D01*
X32867952Y-9533985D01*
X32759086Y-9516742D01*
X32650222Y-9499500D01*
X32429778Y-9499500D01*
X32357201Y-9510995D01*
X32212047Y-9533985D01*
X32002396Y-9602103D01*
X32002393Y-9602104D01*
X31805974Y-9702187D01*
X31627641Y-9831752D01*
X31627636Y-9831756D01*
X31471756Y-9987636D01*
X31471752Y-9987641D01*
X31342187Y-10165974D01*
X31242104Y-10362393D01*
X31242103Y-10362396D01*
X31173985Y-10572047D01*
X31139500Y-10789778D01*
X13940500Y-10789778D01*
X13906015Y-10572049D01*
X13837895Y-10362394D01*
X13837895Y-10362393D01*
X13787081Y-10262667D01*
X13737815Y-10165978D01*
X13681666Y-10088695D01*
X13608247Y-9987641D01*
X13608243Y-9987636D01*
X13452363Y-9831756D01*
X13452358Y-9831752D01*
X13274025Y-9702187D01*
X13274024Y-9702186D01*
X13274022Y-9702185D01*
X13211096Y-9670122D01*
X13077606Y-9602104D01*
X13077603Y-9602103D01*
X12867952Y-9533985D01*
X12759086Y-9516742D01*
X12650222Y-9499500D01*
X12429778Y-9499500D01*
X12357201Y-9510995D01*
X12212047Y-9533985D01*
X12002396Y-9602103D01*
X12002393Y-9602104D01*
X11805974Y-9702187D01*
X11627641Y-9831752D01*
X11627636Y-9831756D01*
X11471756Y-9987636D01*
X11471752Y-9987641D01*
X11342187Y-10165974D01*
X11242104Y-10362393D01*
X11242103Y-10362396D01*
X11173985Y-10572047D01*
X11139500Y-10789778D01*
X600000Y-10789778D01*
X600000Y-4620505D01*
X619685Y-4553466D01*
X672489Y-4507711D01*
X741647Y-4497767D01*
X805203Y-4526792D01*
X842977Y-4585570D01*
X845617Y-4596314D01*
X906064Y-4900212D01*
X906067Y-4900223D01*
X1011614Y-5248165D01*
X1150754Y-5584078D01*
X1150756Y-5584083D01*
X1322140Y-5904720D01*
X1322151Y-5904738D01*
X1524140Y-6207035D01*
X1524150Y-6207049D01*
X1754807Y-6488106D01*
X2011893Y-6745192D01*
X2011898Y-6745196D01*
X2011899Y-6745197D01*
X2292956Y-6975854D01*
X2595268Y-7177853D01*
X2595277Y-7177858D01*
X2595279Y-7177859D01*
X2915916Y-7349243D01*
X2915918Y-7349243D01*
X2915924Y-7349247D01*
X3251836Y-7488386D01*
X3599767Y-7593930D01*
X3599773Y-7593931D01*
X3599776Y-7593932D01*
X3599787Y-7593935D01*
X3956369Y-7664862D01*
X4318206Y-7700500D01*
X4318209Y-7700500D01*
X4681791Y-7700500D01*
X4681794Y-7700500D01*
X5043631Y-7664862D01*
X5114562Y-7650753D01*
X5400212Y-7593935D01*
X5400223Y-7593932D01*
X5400223Y-7593931D01*
X5400233Y-7593930D01*
X5748164Y-7488386D01*
X6084076Y-7349247D01*
X6404732Y-7177853D01*
X6707044Y-6975854D01*
X6988101Y-6745197D01*
X7245197Y-6488101D01*
X7475854Y-6207044D01*
X7677853Y-5904732D01*
X7849247Y-5584076D01*
X7988386Y-5248164D01*
X8093930Y-4900233D01*
X8093932Y-4900223D01*
X8093935Y-4900212D01*
X8164862Y-4543630D01*
X8200500Y-4181794D01*
X8200500Y-3852135D01*
X8599500Y-3852135D01*
X8599500Y-5747870D01*
X8599501Y-5747876D01*
X8605908Y-5807483D01*
X8656202Y-5942328D01*
X8656206Y-5942335D01*
X8742452Y-6057544D01*
X8742455Y-6057547D01*
X8857664Y-6143793D01*
X8857671Y-6143797D01*
X8992517Y-6194091D01*
X8992516Y-6194091D01*
X8999444Y-6194835D01*
X9052127Y-6200500D01*
X10947872Y-6200499D01*
X11007483Y-6194091D01*
X11142331Y-6143796D01*
X11257546Y-6057546D01*
X11343796Y-5942331D01*
X11394091Y-5807483D01*
X11400500Y-5747873D01*
X11400499Y-3852135D01*
X28599500Y-3852135D01*
X28599500Y-5747870D01*
X28599501Y-5747876D01*
X28605908Y-5807483D01*
X28656202Y-5942328D01*
X28656206Y-5942335D01*
X28742452Y-6057544D01*
X28742455Y-6057547D01*
X28857664Y-6143793D01*
X28857671Y-6143797D01*
X28992517Y-6194091D01*
X28992516Y-6194091D01*
X28999444Y-6194835D01*
X29052127Y-6200500D01*
X30947872Y-6200499D01*
X31007483Y-6194091D01*
X31142331Y-6143796D01*
X31257546Y-6057546D01*
X31343796Y-5942331D01*
X31394091Y-5807483D01*
X31400500Y-5747873D01*
X31400499Y-3852135D01*
X48599500Y-3852135D01*
X48599500Y-5747870D01*
X48599501Y-5747876D01*
X48605908Y-5807483D01*
X48656202Y-5942328D01*
X48656206Y-5942335D01*
X48742452Y-6057544D01*
X48742455Y-6057547D01*
X48857664Y-6143793D01*
X48857671Y-6143797D01*
X48992517Y-6194091D01*
X48992516Y-6194091D01*
X48999444Y-6194835D01*
X49052127Y-6200500D01*
X50947872Y-6200499D01*
X51007483Y-6194091D01*
X51142331Y-6143796D01*
X51257546Y-6057546D01*
X51343796Y-5942331D01*
X51394091Y-5807483D01*
X51400500Y-5747873D01*
X51400499Y-3852128D01*
X51394091Y-3792517D01*
X51343796Y-3657669D01*
X51343795Y-3657668D01*
X51343793Y-3657664D01*
X51257547Y-3542455D01*
X51257544Y-3542452D01*
X51142335Y-3456206D01*
X51142328Y-3456202D01*
X51007482Y-3405908D01*
X51007483Y-3405908D01*
X50947883Y-3399501D01*
X50947881Y-3399500D01*
X50947873Y-3399500D01*
X50947864Y-3399500D01*
X49052129Y-3399500D01*
X49052123Y-3399501D01*
X48992516Y-3405908D01*
X48857671Y-3456202D01*
X48857664Y-3456206D01*
X48742455Y-3542452D01*
X48742452Y-3542455D01*
X48656206Y-3657664D01*
X48656202Y-3657671D01*
X48605908Y-3792517D01*
X48599501Y-3852116D01*
X48599501Y-3852123D01*
X48599500Y-3852135D01*
X31400499Y-3852135D01*
X31400499Y-3852128D01*
X31394091Y-3792517D01*
X31343796Y-3657669D01*
X31343795Y-3657668D01*
X31343793Y-3657664D01*
X31257547Y-3542455D01*
X31257544Y-3542452D01*
X31142335Y-3456206D01*
X31142328Y-3456202D01*
X31007482Y-3405908D01*
X31007483Y-3405908D01*
X30947883Y-3399501D01*
X30947881Y-3399500D01*
X30947873Y-3399500D01*
X30947865Y-3399500D01*
X30774500Y-3399500D01*
X30707461Y-3379815D01*
X30661706Y-3327011D01*
X30650500Y-3275500D01*
X30650500Y-2274500D01*
X30670185Y-2207461D01*
X30722989Y-2161706D01*
X30774500Y-2150500D01*
X74255766Y-2150500D01*
X74322805Y-2170185D01*
X74368560Y-2222989D01*
X74378504Y-2292147D01*
X74374662Y-2309432D01*
X74349500Y-2435928D01*
X74349500Y-3275500D01*
X74329815Y-3342539D01*
X74277011Y-3388294D01*
X74225501Y-3399500D01*
X74052130Y-3399500D01*
X74052123Y-3399501D01*
X73992516Y-3405908D01*
X73857671Y-3456202D01*
X73857664Y-3456206D01*
X73742455Y-3542452D01*
X73742452Y-3542455D01*
X73656206Y-3657664D01*
X73656202Y-3657671D01*
X73605908Y-3792517D01*
X73599501Y-3852116D01*
X73599501Y-3852123D01*
X73599500Y-3852135D01*
X73599500Y-5747870D01*
X73599501Y-5747876D01*
X73605908Y-5807483D01*
X73656202Y-5942328D01*
X73656206Y-5942335D01*
X73742452Y-6057544D01*
X73742455Y-6057547D01*
X73857664Y-6143793D01*
X73857671Y-6143797D01*
X73992517Y-6194091D01*
X73992516Y-6194091D01*
X73999444Y-6194835D01*
X74052127Y-6200500D01*
X75947872Y-6200499D01*
X76007483Y-6194091D01*
X76142331Y-6143796D01*
X76257546Y-6057546D01*
X76343796Y-5942331D01*
X76394091Y-5807483D01*
X76400500Y-5747873D01*
X76400499Y-3852135D01*
X128599500Y-3852135D01*
X128599500Y-5747870D01*
X128599501Y-5747876D01*
X128605908Y-5807483D01*
X128656202Y-5942328D01*
X128656206Y-5942335D01*
X128742452Y-6057544D01*
X128742455Y-6057547D01*
X128857664Y-6143793D01*
X128857671Y-6143797D01*
X128992517Y-6194091D01*
X128992516Y-6194091D01*
X128999444Y-6194835D01*
X129052127Y-6200500D01*
X130947872Y-6200499D01*
X131007483Y-6194091D01*
X131142331Y-6143796D01*
X131257546Y-6057546D01*
X131343796Y-5942331D01*
X131394091Y-5807483D01*
X131400500Y-5747873D01*
X131400499Y-3852128D01*
X131394091Y-3792517D01*
X131343796Y-3657669D01*
X131343795Y-3657668D01*
X131343793Y-3657664D01*
X131257547Y-3542455D01*
X131257544Y-3542452D01*
X131142335Y-3456206D01*
X131142328Y-3456202D01*
X131007482Y-3405908D01*
X131007483Y-3405908D01*
X130947883Y-3399501D01*
X130947881Y-3399500D01*
X130947873Y-3399500D01*
X130947864Y-3399500D01*
X129052129Y-3399500D01*
X129052123Y-3399501D01*
X128992516Y-3405908D01*
X128857671Y-3456202D01*
X128857664Y-3456206D01*
X128742455Y-3542452D01*
X128742452Y-3542455D01*
X128656206Y-3657664D01*
X128656202Y-3657671D01*
X128605908Y-3792517D01*
X128599501Y-3852116D01*
X128599501Y-3852123D01*
X128599500Y-3852135D01*
X76400499Y-3852135D01*
X76400499Y-3852128D01*
X76394091Y-3792517D01*
X76343796Y-3657669D01*
X76343795Y-3657668D01*
X76343793Y-3657664D01*
X76257547Y-3542455D01*
X76257544Y-3542452D01*
X76142335Y-3456206D01*
X76142328Y-3456202D01*
X76007482Y-3405908D01*
X76007483Y-3405908D01*
X75947883Y-3399501D01*
X75947881Y-3399500D01*
X75947873Y-3399500D01*
X75947865Y-3399500D01*
X75774500Y-3399500D01*
X75765814Y-3396949D01*
X75756853Y-3398238D01*
X75732812Y-3387259D01*
X75707461Y-3379815D01*
X75701533Y-3372974D01*
X75693297Y-3369213D01*
X75679007Y-3346978D01*
X75661706Y-3327011D01*
X75659418Y-3316496D01*
X75655523Y-3310435D01*
X75650500Y-3275500D01*
X75650500Y-3274500D01*
X75670185Y-3207461D01*
X75722989Y-3161706D01*
X75774500Y-3150500D01*
X189255766Y-3150500D01*
X189322805Y-3170185D01*
X189368560Y-3222989D01*
X189378504Y-3292147D01*
X189374405Y-3310566D01*
X189374101Y-3311566D01*
X189335769Y-3369982D01*
X189271939Y-3398400D01*
X189255463Y-3399500D01*
X189052130Y-3399500D01*
X189052123Y-3399501D01*
X188992516Y-3405908D01*
X188857671Y-3456202D01*
X188857664Y-3456206D01*
X188742455Y-3542452D01*
X188742452Y-3542455D01*
X188656206Y-3657664D01*
X188656202Y-3657671D01*
X188605908Y-3792517D01*
X188599501Y-3852116D01*
X188599501Y-3852123D01*
X188599500Y-3852135D01*
X188599500Y-5747870D01*
X188599501Y-5747876D01*
X188605908Y-5807483D01*
X188656202Y-5942328D01*
X188656206Y-5942335D01*
X188742452Y-6057544D01*
X188742455Y-6057547D01*
X188857664Y-6143793D01*
X188857671Y-6143797D01*
X188992517Y-6194091D01*
X188992516Y-6194091D01*
X188999444Y-6194835D01*
X189052127Y-6200500D01*
X190947872Y-6200499D01*
X191007483Y-6194091D01*
X191142331Y-6143796D01*
X191257546Y-6057546D01*
X191343796Y-5942331D01*
X191394091Y-5807483D01*
X191400500Y-5747873D01*
X191400499Y-4274499D01*
X191420184Y-4207461D01*
X191472987Y-4161706D01*
X191524499Y-4150500D01*
X203375500Y-4150500D01*
X203442539Y-4170185D01*
X203488294Y-4222989D01*
X203499500Y-4274500D01*
X203499500Y-4610616D01*
X203479815Y-4677655D01*
X203427011Y-4723410D01*
X203357853Y-4733354D01*
X203337183Y-4728547D01*
X203196244Y-4682754D01*
X203196240Y-4682753D01*
X203034957Y-4657208D01*
X202986287Y-4649500D01*
X202773713Y-4649500D01*
X202725042Y-4657208D01*
X202563760Y-4682753D01*
X202361585Y-4748444D01*
X202172179Y-4844951D01*
X202000213Y-4969890D01*
X201849890Y-5120213D01*
X201722085Y-5296125D01*
X201720740Y-5295148D01*
X201718408Y-5297257D01*
X201714095Y-5306703D01*
X201692939Y-5320298D01*
X201674295Y-5337166D01*
X201662491Y-5339866D01*
X201655317Y-5344477D01*
X201620382Y-5349500D01*
X201599618Y-5349500D01*
X201532579Y-5329815D01*
X201498900Y-5295408D01*
X201497915Y-5296125D01*
X201370109Y-5120213D01*
X201219786Y-4969890D01*
X201047820Y-4844951D01*
X200858414Y-4748444D01*
X200858413Y-4748443D01*
X200858412Y-4748443D01*
X200656243Y-4682754D01*
X200656241Y-4682753D01*
X200656240Y-4682753D01*
X200494957Y-4657208D01*
X200446287Y-4649500D01*
X200233713Y-4649500D01*
X200185042Y-4657208D01*
X200023760Y-4682753D01*
X199821585Y-4748444D01*
X199632179Y-4844951D01*
X199460213Y-4969890D01*
X199309890Y-5120213D01*
X199184951Y-5292179D01*
X199088444Y-5481585D01*
X199022753Y-5683760D01*
X198989500Y-5893713D01*
X198989500Y-6106287D01*
X199022754Y-6316243D01*
X199078594Y-6488101D01*
X199088444Y-6518414D01*
X199184951Y-6707820D01*
X199309890Y-6879786D01*
X199460213Y-7030109D01*
X199632179Y-7155048D01*
X199632181Y-7155049D01*
X199632184Y-7155051D01*
X199821588Y-7251557D01*
X200023757Y-7317246D01*
X200233713Y-7350500D01*
X200233714Y-7350500D01*
X200446286Y-7350500D01*
X200446287Y-7350500D01*
X200656243Y-7317246D01*
X200797185Y-7271450D01*
X200867022Y-7269456D01*
X200926855Y-7305536D01*
X200957684Y-7368237D01*
X200959500Y-7389382D01*
X200959500Y-13064069D01*
X200959500Y-13064071D01*
X200959499Y-13064071D01*
X200984497Y-13189738D01*
X200984499Y-13189744D01*
X201033533Y-13308124D01*
X201033538Y-13308133D01*
X201104723Y-13414668D01*
X201104726Y-13414672D01*
X201195327Y-13505273D01*
X201195331Y-13505276D01*
X201301866Y-13576461D01*
X201301872Y-13576464D01*
X201301873Y-13576465D01*
X201420256Y-13625501D01*
X201420260Y-13625501D01*
X201420261Y-13625502D01*
X201545928Y-13650500D01*
X201545931Y-13650500D01*
X215464071Y-13650500D01*
X215548615Y-13633682D01*
X215589744Y-13625501D01*
X215708127Y-13576465D01*
X215814669Y-13505276D01*
X215905276Y-13414669D01*
X215976465Y-13308127D01*
X216025501Y-13189744D01*
X216050500Y-13064069D01*
X216050500Y-3004935D01*
X216070185Y-2937896D01*
X216071366Y-2936090D01*
X216109394Y-2879179D01*
X216169737Y-2733497D01*
X216200500Y-2578842D01*
X216200500Y-2421158D01*
X216200500Y-2421155D01*
X216200499Y-2421153D01*
X216178276Y-2309432D01*
X216169737Y-2266503D01*
X216145281Y-2207461D01*
X216109397Y-2120827D01*
X216109390Y-2120814D01*
X216021789Y-1989711D01*
X216021786Y-1989707D01*
X215910292Y-1878213D01*
X215910288Y-1878210D01*
X215779185Y-1790609D01*
X215779172Y-1790602D01*
X215633501Y-1730264D01*
X215633489Y-1730261D01*
X215478845Y-1699500D01*
X215478842Y-1699500D01*
X215321158Y-1699500D01*
X215321155Y-1699500D01*
X215166510Y-1730261D01*
X215166498Y-1730264D01*
X215020827Y-1790602D01*
X215020814Y-1790609D01*
X214889711Y-1878210D01*
X214889707Y-1878213D01*
X214778213Y-1989707D01*
X214778210Y-1989711D01*
X214690609Y-2120814D01*
X214690602Y-2120827D01*
X214630264Y-2266498D01*
X214630261Y-2266510D01*
X214599500Y-2421153D01*
X214599500Y-2578846D01*
X214630261Y-2733489D01*
X214630264Y-2733501D01*
X214690602Y-2879172D01*
X214690606Y-2879179D01*
X214728602Y-2936044D01*
X214749480Y-3002721D01*
X214749500Y-3004935D01*
X214749500Y-12225500D01*
X214729815Y-12292539D01*
X214677011Y-12338294D01*
X214625500Y-12349500D01*
X202384500Y-12349500D01*
X202317461Y-12329815D01*
X202271706Y-12277011D01*
X202260500Y-12225500D01*
X202260500Y-9929382D01*
X202280185Y-9862343D01*
X202332989Y-9816588D01*
X202402147Y-9806644D01*
X202422805Y-9811447D01*
X202563757Y-9857246D01*
X202773713Y-9890500D01*
X202773714Y-9890500D01*
X202986286Y-9890500D01*
X202986287Y-9890500D01*
X203196243Y-9857246D01*
X203398412Y-9791557D01*
X203587816Y-9695051D01*
X203609789Y-9679086D01*
X203759786Y-9570109D01*
X203759788Y-9570106D01*
X203759792Y-9570104D01*
X203910104Y-9419792D01*
X203910106Y-9419788D01*
X203910109Y-9419786D01*
X204037915Y-9243875D01*
X204039259Y-9244851D01*
X204041591Y-9242742D01*
X204045905Y-9233297D01*
X204067060Y-9219701D01*
X204085705Y-9202834D01*
X204097508Y-9200133D01*
X204104683Y-9195523D01*
X204139618Y-9190500D01*
X204160382Y-9190500D01*
X204227421Y-9210185D01*
X204261099Y-9244591D01*
X204262085Y-9243875D01*
X204389890Y-9419786D01*
X204540213Y-9570109D01*
X204712179Y-9695048D01*
X204712181Y-9695049D01*
X204712184Y-9695051D01*
X204901588Y-9791557D01*
X205103757Y-9857246D01*
X205313713Y-9890500D01*
X205313714Y-9890500D01*
X205526286Y-9890500D01*
X205526287Y-9890500D01*
X205736243Y-9857246D01*
X205938412Y-9791557D01*
X206127816Y-9695051D01*
X206149789Y-9679086D01*
X206299786Y-9570109D01*
X206299788Y-9570106D01*
X206299792Y-9570104D01*
X206450104Y-9419792D01*
X206450106Y-9419788D01*
X206450109Y-9419786D01*
X206577915Y-9243875D01*
X206579259Y-9244851D01*
X206581591Y-9242742D01*
X206585905Y-9233297D01*
X206607060Y-9219701D01*
X206625705Y-9202834D01*
X206637508Y-9200133D01*
X206644683Y-9195523D01*
X206679618Y-9190500D01*
X206700382Y-9190500D01*
X206767421Y-9210185D01*
X206801099Y-9244591D01*
X206802085Y-9243875D01*
X206929890Y-9419786D01*
X207080213Y-9570109D01*
X207252179Y-9695048D01*
X207252181Y-9695049D01*
X207252184Y-9695051D01*
X207441588Y-9791557D01*
X207643757Y-9857246D01*
X207853713Y-9890500D01*
X207853714Y-9890500D01*
X208066286Y-9890500D01*
X208066287Y-9890500D01*
X208276243Y-9857246D01*
X208478412Y-9791557D01*
X208667816Y-9695051D01*
X208689789Y-9679086D01*
X208839786Y-9570109D01*
X208839788Y-9570106D01*
X208839792Y-9570104D01*
X208990104Y-9419792D01*
X208990106Y-9419788D01*
X208990109Y-9419786D01*
X209117915Y-9243875D01*
X209119259Y-9244851D01*
X209165705Y-9202834D01*
X209219618Y-9190500D01*
X209294071Y-9190500D01*
X209378615Y-9173682D01*
X209419744Y-9165501D01*
X209538127Y-9116465D01*
X209644669Y-9045276D01*
X209735276Y-8954669D01*
X209806465Y-8848127D01*
X209855501Y-8729744D01*
X209880500Y-8604069D01*
X209880500Y-7474499D01*
X209900185Y-7407460D01*
X209952989Y-7361705D01*
X210004500Y-7350499D01*
X211075500Y-7350499D01*
X211142539Y-7370184D01*
X211188294Y-7422988D01*
X211199500Y-7474499D01*
X211199500Y-10088695D01*
X211234103Y-10262658D01*
X211234106Y-10262667D01*
X211301983Y-10426540D01*
X211301990Y-10426553D01*
X211400535Y-10574034D01*
X211400538Y-10574038D01*
X211525961Y-10699461D01*
X211525965Y-10699464D01*
X211673446Y-10798009D01*
X211673459Y-10798016D01*
X211796363Y-10848923D01*
X211837334Y-10865894D01*
X211837336Y-10865894D01*
X211837341Y-10865896D01*
X212011304Y-10900499D01*
X212011307Y-10900500D01*
X212011309Y-10900500D01*
X212188693Y-10900500D01*
X212188694Y-10900499D01*
X212246682Y-10888964D01*
X212362658Y-10865896D01*
X212362661Y-10865894D01*
X212362666Y-10865894D01*
X212526547Y-10798013D01*
X212674035Y-10699464D01*
X212799464Y-10574035D01*
X212898013Y-10426547D01*
X212965894Y-10262666D01*
X213000500Y-10088691D01*
X213000500Y-5911309D01*
X213000500Y-5911306D01*
X213000499Y-5911304D01*
X212965896Y-5737341D01*
X212965893Y-5737332D01*
X212898016Y-5573459D01*
X212898009Y-5573446D01*
X212799464Y-5425965D01*
X212799461Y-5425961D01*
X212674038Y-5300538D01*
X212674034Y-5300535D01*
X212526553Y-5201990D01*
X212526540Y-5201983D01*
X212362667Y-5134106D01*
X212362658Y-5134103D01*
X212188694Y-5099500D01*
X212188691Y-5099500D01*
X211865638Y-5099500D01*
X211798599Y-5079815D01*
X211760099Y-5040597D01*
X211692712Y-4931344D01*
X211568656Y-4807288D01*
X211440996Y-4728547D01*
X211419336Y-4715187D01*
X211419331Y-4715185D01*
X211417862Y-4714698D01*
X211252797Y-4660001D01*
X211252795Y-4660000D01*
X211150016Y-4649500D01*
X211150009Y-4649500D01*
X210004500Y-4649500D01*
X209937461Y-4629815D01*
X209891706Y-4577011D01*
X209880500Y-4525500D01*
X209880500Y-1435928D01*
X209855502Y-1310261D01*
X209855501Y-1310260D01*
X209855501Y-1310256D01*
X209806465Y-1191873D01*
X209806464Y-1191872D01*
X209806461Y-1191866D01*
X209735276Y-1085331D01*
X209735273Y-1085327D01*
X209644672Y-994726D01*
X209644668Y-994723D01*
X209538133Y-923538D01*
X209538124Y-923533D01*
X209419744Y-874499D01*
X209419738Y-874497D01*
X209294071Y-849500D01*
X209294069Y-849500D01*
X30064069Y-849500D01*
X29935931Y-849500D01*
X29935929Y-849500D01*
X29810261Y-874497D01*
X29810255Y-874499D01*
X29691875Y-923533D01*
X29691866Y-923538D01*
X29585331Y-994723D01*
X29585327Y-994726D01*
X29494726Y-1085327D01*
X29494723Y-1085331D01*
X29423538Y-1191866D01*
X29423533Y-1191875D01*
X29374499Y-1310255D01*
X29374497Y-1310261D01*
X29349500Y-1435928D01*
X29349500Y-3275500D01*
X29329815Y-3342539D01*
X29277011Y-3388294D01*
X29225501Y-3399500D01*
X29052130Y-3399500D01*
X29052123Y-3399501D01*
X28992516Y-3405908D01*
X28857671Y-3456202D01*
X28857664Y-3456206D01*
X28742455Y-3542452D01*
X28742452Y-3542455D01*
X28656206Y-3657664D01*
X28656202Y-3657671D01*
X28605908Y-3792517D01*
X28599501Y-3852116D01*
X28599501Y-3852123D01*
X28599500Y-3852135D01*
X11400499Y-3852135D01*
X11400499Y-3852128D01*
X11394091Y-3792517D01*
X11343796Y-3657669D01*
X11343795Y-3657668D01*
X11343793Y-3657664D01*
X11257547Y-3542455D01*
X11257544Y-3542452D01*
X11142335Y-3456206D01*
X11142328Y-3456202D01*
X11007482Y-3405908D01*
X11007483Y-3405908D01*
X10947883Y-3399501D01*
X10947881Y-3399500D01*
X10947873Y-3399500D01*
X10947864Y-3399500D01*
X9052129Y-3399500D01*
X9052123Y-3399501D01*
X8992516Y-3405908D01*
X8857671Y-3456202D01*
X8857664Y-3456206D01*
X8742455Y-3542452D01*
X8742452Y-3542455D01*
X8656206Y-3657664D01*
X8656202Y-3657671D01*
X8605908Y-3792517D01*
X8599501Y-3852116D01*
X8599501Y-3852123D01*
X8599500Y-3852135D01*
X8200500Y-3852135D01*
X8200500Y-3818206D01*
X8164862Y-3456369D01*
X8154383Y-3403685D01*
X8093935Y-3099787D01*
X8093932Y-3099776D01*
X8093931Y-3099773D01*
X8093930Y-3099767D01*
X7988386Y-2751836D01*
X7849247Y-2415924D01*
X7792766Y-2310256D01*
X7677859Y-2095279D01*
X7677858Y-2095277D01*
X7677853Y-2095268D01*
X7475854Y-1792956D01*
X7245197Y-1511899D01*
X7245196Y-1511898D01*
X7245192Y-1511893D01*
X6988106Y-1254807D01*
X6707049Y-1024150D01*
X6707048Y-1024149D01*
X6707044Y-1024146D01*
X6412146Y-827101D01*
X6367342Y-773490D01*
X6358635Y-704165D01*
X6388789Y-641138D01*
X6448232Y-604418D01*
X6481038Y-600000D01*
X223276000Y-600000D01*
X223343039Y-619685D01*
G37*
%TD.AperFunction*%
%TD*%
M02*
